<svg xmlns="http://www.w3.org/2000/svg" width="2524" height="1070" fill="none" viewBox="0 0 2524 1070">
  <path fill="#EBEBEB" d="m2133 950-959.37 99.93c-.42.04-.84.04-1.25 0L213 950V20h1920v930Z"/>
  <mask id="a" width="2524" height="1070" x="0" y="0" maskUnits="userSpaceOnUse" style="mask-type:alpha">
    <path fill="#544A4A"
          d="M330.949 91.344c21.341-17.88 45.516-31.74 68.9-45.161 23.737-13.61 48.204-27.718 70.107-46.12h-6.523c-20.632 16.63-43.473 29.78-65.668 42.493-23.53 13.505-47.871 27.469-69.504 45.579-22.362 18.736-45.12 22.591-76.068 12.921C183.273 79.507 112.039 47.266 29.01.063h-8.398C106.663 49.413 180 82.84 250.984 105.037c32.032 10.003 56.707 5.793 79.986-13.693h-.021Z"/>
    <path fill="#544A4A"
          d="M625.594.063c-1.021 1.292-2.063 2.605-3.043 3.897-39.534 52.268-79.986 91.803-123.647 120.834-44.766 29.76-76.173 59.875-98.868 94.741-2.814 4.314-6.461 8.17-10.004 11.879l-2.042 2.147c-23.613 25.134-47.725 37.159-71.671 35.721-23.8-1.417-46.099-16.047-66.336-43.495-2.605-3.543-5.189-7.085-7.794-10.649-21.424-29.406-43.557-59.813-75.506-78.236-26.655-15.38-53.519-31.469-79.507-47.037C58.687 72.838 29.343 55.29.042 38.514v4.814c28.593 16.401 57.207 33.49 84.967 50.121 26.009 15.568 52.893 31.678 79.569 47.059 31.178 17.985 53.061 48.037 74.214 77.089 2.584 3.564 5.189 7.128 7.794 10.67 20.987 28.49 44.37 43.682 69.441 45.183 1.292.083 2.584.125 3.897.125 23.696 0 48.184-12.775 71.067-37.138l2.022-2.126c3.667-3.855 7.44-7.836 10.462-12.462 22.382-34.388 53.414-64.106 97.7-93.554 44.078-29.302 84.843-69.15 124.669-121.793a283.156 283.156 0 0 1 5.023-6.419h-5.315l.042-.02ZM1251.44 941.434c-43.18-14.839-77.74 4.126-103.02 22.299-43.97 31.636-86.82 43.247-130.96 35.534-64.752-11.317-106.62-47.1-127.982-109.351a1408.47 1408.47 0 0 0-66.815-161.286c-35.533-72.588-76.985-118.729-130.462-145.217-45.787-22.675-78.57-72.401-92.304-140.029-16.13-79.423-1.146-165.37 36.409-209.01 22.424-26.051 53.31-55.478 93.491-51.602 99.306 9.566 181.668-33.636 271.403-86.76 28.37-16.797 58.07-38.617 51.36-85.3-.53-3.626-1.25-7.17-2.09-10.65h-4.25c.92 3.648 1.65 7.42 2.21 11.254 6.36 44.12-22.13 65.002-49.351 81.112-89.094 52.769-170.831 95.68-268.886 86.218-42.098-4.064-73.984 26.217-97.055 53.018-38.347 44.558-53.706 131.984-37.346 212.575 13.984 68.92 47.558 119.688 94.533 142.946 52.622 26.051 93.47 71.587 128.587 143.3 25.404 51.893 47.808 105.995 66.627 160.806 21.904 63.835 64.814 100.494 131.191 112.099 45.31 7.92 89.18-3.936 134.11-36.26 36.33-26.134 66.94-32.844 99.22-21.757 33.58 11.525 84.78 75.797 99.85 124.607h4.36c-14.93-49.96-68.05-116.584-102.85-128.546h.02ZM1497.17 308.817c-23.3-63.648-57.33-115.27-101.18-153.45-49.25-42.869-68.82-90.865-61.56-150.99.16-1.438.31-2.876.43-4.335h-4.21c-.1 1.292-.2 2.584-.37 3.834-7.44 61.626 12.57 110.768 62.96 154.638 43.3 37.701 76.94 88.739 99.99 151.741 15.55 42.473 35.56 91.865 66.07 136.047 30.63 44.37 32.55 89.511 5.85 138.028-28.7 52.164-46.97 110.455-54.29 173.269-1.89 16.172-3.58 37.534.11 59.396 6.17 36.492 11.21 73.838 16.11 109.934 5.77 42.577 11.73 86.611 19.54 129.631.82 4.46 1.4 8.96 1.78 13.42h4.19c-.4-4.73-1-9.48-1.86-14.17-7.81-42.91-13.75-86.908-19.53-129.444-4.89-36.137-9.96-73.505-16.13-110.08-2.81-16.631-2.83-34.595-.08-58.208 7.25-62.272 25.36-120.042 53.81-171.747 27.53-50.039 25.53-96.618-6.09-142.405-30.24-43.786-50.12-92.886-65.58-135.109h.04Z"/>
    <path fill="#544A4A"
          d="M1534.27 1030.59c-3.71-26.15-8.01-52.685-12.2-78.319-7.66-47.225-15.6-96.054-20.02-144.425-5.48-60.271 7.52-123.127 40.97-197.84 1.5-3.335 3.42-6.815 6.04-10.942 37.33-58.458 35.5-111.726-5.62-162.828-23.51-29.239-36.85-65.627-49.73-100.806-10.52-28.76-21.42-58.499-37.87-84.55-21.32-33.783-42.95-66.148-72.98-90.845-45.04-37.054-64.61-80.924-61.56-138.069.41-8.003.58-15.193.54-21.882h-4.17c.06 6.627-.1 13.734-.52 21.674-3.13 58.583 16.92 103.536 63.06 141.508 29.55 24.321 50.98 56.374 72.11 89.865 16.22 25.675 27.01 55.206 37.47 83.758 13.01 35.492 26.45 72.213 50.4 101.973 40.41 50.226 42.09 100.431 5.35 157.972-2.75 4.293-4.75 7.941-6.33 11.483-33.75 75.402-46.87 138.924-41.33 199.925 4.42 48.517 12.38 97.43 20.07 144.717 4.17 25.634 8.48 52.121 12.17 78.231.81 5.82 1.94 11.63 3.02 17.26 1.36 7.04 2.73 14.3 3.52 21.55h4.21c-.81-7.59-2.25-15.07-3.64-22.34-1.09-5.59-2.19-11.34-3-17.05l.04-.02Z"/>
    <path fill="#544A4A"
          d="M1536.21 315.131c-23.53-65.585-55.77-118.729-95.81-157.972-43.81-42.931-60.52-90.365-52.6-149.281.35-2.584.62-5.21.85-7.836h-4.16c-.23 2.438-.48 4.876-.82 7.273-8.13 60.334 8.98 108.892 53.81 152.804 39.6 38.784 71.49 91.407 94.81 156.388 14.84 41.348 37.66 80.903 71.86 124.502 43.53 55.519 44.72 83.55 5.98 142.883-3 4.606-6.05 9.17-9.07 13.734-17.15 25.822-34.89 52.498-45.66 84.05-21.65 63.439-20.76 128.921 2.75 200.154 21.13 64.064 35.22 124.13 43.06 183.65.21 1.5.37 3 .52 4.48h4.17c-.19-1.67-.36-3.34-.57-5.02-7.87-59.8-22-120.109-43.24-184.423-23.22-70.337-24.11-134.943-2.75-197.486 10.59-31.032 28.17-57.499 45.18-83.092 3.04-4.585 6.09-9.149 9.09-13.754 40.03-61.334 38.82-90.324-6.19-147.719-33.91-43.223-56.54-82.425-71.21-123.335ZM1279.03 1046.43c-2.9-24.11-14.96-43.22-33.09-52.436-16.45-8.336-36.18-7.336-54.17 2.772l-1.69.938c-3.04 1.667-6.17 3.396-8.98 5.816-51.81 44.33-111.37 52.73-187.481 26.45-68.545-23.68-113.54-69.613-137.569-140.429-18.757-55.269-43.661-112.748-78.382-180.876-23.362-45.87-53.435-77.944-89.344-95.325-97.242-47.1-119.687-142.237-129.483-238.021-3.292-32.24-1.729-65.023-.208-96.7.542-11.15 1.084-22.696 1.417-34.054.896-30.532-6.398-39.201-33.97-40.264-23.487-.875-42.557 11.712-59.375 22.841-13.984 9.274-26.926 20.57-39.43 31.49-8.191 7.17-16.673 14.568-25.343 21.3-31.031 24.112-63.23 34.178-93.136 29.156-27.406-4.606-51.748-22.175-70.379-50.768-59.5-91.47-145.885-140.862-229.414-188.608a304.67 304.67 0 0 0-8.961-4.918v4.73c2.271 1.23 4.564 2.48 6.898 3.814 83.112 47.517 169.038 96.659 228.038 187.253 19.278 29.615 44.578 47.809 73.171 52.602 31.095 5.231 64.398-5.147 96.388-29.989 8.753-6.794 17.277-14.255 25.509-21.445 12.401-10.838 25.217-22.029 38.993-31.157 16.277-10.796 34.721-23.008 56.916-22.154 25.196.98 30.782 7.69 29.969 35.971-.334 11.317-.876 22.841-1.417 33.97-1.522 31.845-3.085 64.773.229 97.326 9.899 96.992 32.72 193.36 131.817 241.356 35.075 16.985 64.502 48.433 87.447 93.47 34.637 67.94 59.458 125.252 78.153 180.313 24.466 72.129 70.316 118.896 140.153 143.006 29.154 10.07 55.934 15.13 80.844 15.13 41.41 0 77.59-14.02 110.7-42.37 2.48-2.12 5.3-3.69 8.28-5.31l1.7-.96c17.01-9.544 34.85-10.503 50.25-2.688 16.86 8.568 28.12 26.488 30.85 49.208.93 7.79 1.39 15.52 1.39 23.05h4.19c0-7.69-.5-15.59-1.46-23.55l-.02.06Z"/>
    <path fill="#544A4A"
          d="M.042 30.344c47.954 26.468 95.97 54.477 142.529 81.633 9.044 5.293 18.089 10.566 27.155 15.839 37.951 22.112 63.918 57.978 82.3 86.78 19.569 30.636 42.744 47.308 67.044 48.204 22.299.855 43.995-11.983 62.793-37.075 39.284-52.435 89.156-90.532 137.381-127.399 6.565-5.022 13.151-10.045 19.715-15.11 25.489-19.694 49.122-45.39 72.213-78.59a198.205 198.205 0 0 1 3.272-4.564h-5.127c-.521.73-1.062 1.48-1.563 2.189-22.841 32.845-46.182 58.25-71.337 77.673a4129.08 4129.08 0 0 1-19.695 15.088c-48.454 37.034-98.576 75.318-138.194 128.212-17.944 23.946-38.451 36.117-59.291 35.408-22.863-.854-44.891-16.86-63.689-46.287-18.632-29.177-44.995-65.564-83.717-88.135-9.045-5.273-18.09-10.545-27.135-15.839C97.451 80.82 48.726 52.393.042 25.592v4.752ZM1253.19 927.575c-47.56-18.027-86.36 4.543-121.23 31.615-38.08 29.573-91.8 37.617-140.217 20.966-47.183-16.235-81.341-53.623-93.72-102.599-4.627-18.339-11.483-36.012-16.923-49.35-40.264-98.639-85.905-210.449-194.235-264.864-28.447-14.276-49.788-40.347-63.438-77.465-19.82-53.893-24.509-110.33-13.568-163.223 18.048-87.156 71.338-134.985 142.529-127.962 100.286 9.899 182.731-42.744 262.442-93.658 7.84-5.001 15.68-10.003 23.51-14.942 17.3-10.9 27.07-31.261 27.49-57.333.17-9.774-.77-19.403-2.73-28.698h-4.27c2.04 9.275 3 18.882 2.83 28.636-.39 24.612-9.48 43.744-25.55 53.873-7.85 4.939-15.69 9.961-23.53 14.963-79.128 50.518-160.948 102.744-259.796 93.012-73.546-7.253-128.503 41.827-147.009 131.275-11.108 53.644-6.357 110.872 13.734 165.496 14.025 38.138 36.054 64.981 65.481 79.757 106.933 53.706 152.262 164.745 192.255 262.717 5.397 13.213 12.171 30.698 16.735 48.788 12.733 50.351 47.85 88.822 96.388 105.516 49.722 17.105 104.952 8.836 144.132-21.612 33.89-26.343 71.55-48.309 117.19-31.011 38.37 14.547 62.21 46.475 87.24 83.638 11 16.33 18.46 34.32 22.78 54.87h4.23c-4.4-21.45-12.09-40.18-23.55-57.21-25.43-37.741-49.69-70.211-89.22-85.195h.02ZM1551.09 887.186c-35.58-106.058-22.62-203.03 38.51-288.268l.92-1.292c47.89-66.753 62.33-86.905-1.92-162.661-26.3-31.011-46.85-68.045-62.86-113.248-23.67-66.94-54.37-117.646-93.86-154.992-47.62-45.057-65.94-97.513-56-160.41.31-2.043.6-4.127.85-6.253h-4.19a157.09 157.09 0 0 1-.77 5.607c-10.17 64.356 8.55 118.02 57.25 164.078 38.99 36.888 69.36 87.051 92.8 153.345 16.18 45.683 36.98 83.154 63.61 114.561 62.15 73.276 49.35 91.116 1.71 157.535l-.92 1.292c-61.96 86.384-75.11 184.627-39.07 292.019 14.75 43.973 27.21 92.282 38.11 147.701 2.38 12.06 3.96 23.13 4.92 33.78h4.21c-.96-10.9-2.6-22.24-5.02-34.58-10.94-55.598-23.47-104.074-38.26-148.214h-.02Z"/>
    <path fill="#544A4A"
          d="M1476.08 68.503c7.27 2.501 13.94 7.044 20.4 11.42 2.61 1.772 5.32 3.606 8.05 5.315 50.58 31.428 86.72 43.036 120.83 38.764 34.01-4.252 66.86-24.384 109.81-67.336 20.67-20.674 45-43.536 73.94-56.603h-9.5c-26.16 13.65-48.31 34.574-67.4 53.643-80.46 80.403-131.04 86.697-225.52 27.99-2.64-1.647-5.31-3.46-7.89-5.21-6.69-4.544-13.61-9.254-21.39-11.922-11.42-3.918-17.77-1.292-21.09 1.626-5.25 4.585-6.83 12.984-4.56 24.258 3.12 15.589 11.88 28.094 20.32 40.181l.27.375c38.83 55.541 77.65 117.333 98.62 192.734 8.08 29.073 24.15 56.041 49.14 82.446l2.85 3.022c15.95 16.818 32.41 34.199 45.21 54.602 23.34 37.201 23.3 67.274-.15 103.787-12.77 19.923-25.01 36.492-37.39 50.663-63.16 72.317-76.46 154.242-39.51 243.461 25.84 62.396 41.04 130.566 46.47 208.281h4.17c-5.44-78.278-20.73-146.968-46.78-209.865-36.29-87.656-23.24-168.101 38.8-239.126 12.51-14.317 24.86-31.052 37.76-51.143 24.45-38.096 24.49-69.462.17-108.246-13.02-20.757-29.63-38.284-45.72-55.248l-2.86-3.022c-24.51-25.884-40.26-52.29-48.16-80.695-21.13-76.006-60.17-138.153-99.22-194.006l-.27-.375c-8.22-11.733-16.72-23.883-19.66-38.618-1.91-9.607-.77-16.818 3.23-20.32 3.59-3.125 9.46-3.417 17.01-.812l.02-.02ZM823.684 888.123c-17.235-47.808-38.409-94.366-58.916-139.382l-6.94-15.234c-21.904-48.246-52.539-82.654-91.053-102.244-71.838-36.555-114.728-98.139-131.088-188.337-6.106-33.679-14.025-70.275-24.154-111.852-5.002-20.528-11.337-31.719-20.528-36.283-8.649-4.294-20.007-2.939-36.846 4.376-9.233 4.022-18.382 8.628-27.218 13.088-18.486 9.316-37.617 18.965-58.25 23.467-61.98 13.525-113.789-8.399-149.802-63.398C159.931 182.314 79.319 132.088.042 92.115v4.669c78.152 39.576 157.388 89.344 215.346 177.833 37.054 56.582 90.365 79.111 154.179 65.189 21.174-4.626 40.514-14.38 59.25-23.82 8.794-4.44 17.881-9.024 27.009-12.984 15.61-6.794 25.884-8.17 33.345-4.46 7.982 3.96 13.651 14.317 18.34 33.533 10.128 41.493 18.006 78.006 24.113 111.601 16.61 91.553 60.208 154.117 133.296 191.296 37.659 19.153 67.649 52.894 89.156 100.244l6.94 15.234c20.445 44.954 41.598 91.428 58.792 139.07 25.634 71.15 70.358 124.77 132.921 159.39a669.148 669.148 0 0 0 41.327 21.05h9.984c-16.132-7.23-32.7-15.53-49.289-24.7-61.647-34.11-105.745-86.987-131.025-157.157l-.042.02Z"/>
    <path fill="#544A4A"
          d="M1252.81 981.531c-27.32-16.568-56.43-12.17-79.86 12.067-33.01 34.162-88.42 46.262-148.28 32.412-72.795-16.89-132.045-65.507-150.927-123.902-18.735-57.937-44.119-113.686-68.649-167.601-31.136-68.398-68.19-111.768-116.624-136.506-55.269-28.239-89.406-73.984-104.307-139.861-15.235-67.295-18.778-138.111-10.837-216.514 1.729-17.068-.813-29.447-7.795-37.825-6.419-7.732-16.526-12.046-30.886-13.234-47.433-3.918-80.424 26.072-112.331 55.082a3064.852 3064.852 0 0 1-9.461 8.565c-34.825 31.157-67.628 45.058-97.493 41.327-29.927-3.751-58.416-25.405-84.634-64.377-23.424-34.824-49.475-70.691-87.53-93.22-19.174-11.337-38.472-23.258-57.166-34.762C58.041 85.905 29.156 68.128.042 51.768v4.773c28.343 16.005 56.498 33.345 83.8 50.163 18.694 11.525 38.034 23.446 57.228 34.804 37.305 22.07 63.043 57.541 86.197 91.949 26.926 40.014 56.374 62.293 87.572 66.19 31.094 3.876 65.002-10.358 100.786-42.369 3.167-2.835 6.335-5.711 9.503-8.587 31.24-28.384 63.543-57.77 109.184-53.998 13.192 1.084 22.362 4.919 28.031 11.734 6.21 7.481 8.461 18.84 6.856 34.741-8.003 78.84-4.418 150.115 10.921 217.847 15.192 67.149 50.038 113.811 106.474 142.654 47.559 24.28 84.009 67.024 114.728 134.527 24.488 53.81 49.83 109.455 68.482 167.162 19.32 59.75 79.758 109.472 153.946 126.672 61.3 14.21 118.21 1.64 152.22-33.556 22.28-23.05 48.81-27.093 74.72-11.4 25.78 15.626 38.32 40.406 37.3 73.626-.12 3.76-.12 7.55-.12 11.26h4.17c0-3.69 0-7.44.1-11.13 1.08-34.83-12.15-60.855-39.31-77.319l-.02.02ZM1625.86 610.214c14.46-13.88 25.99-31.032 38.51-50.372 22.24-34.387 21.97-65.794-.72-86.113-54.67-48.955-84.2-116.333-112.75-181.522-13.51-30.824-27.47-62.668-43.91-92.241-7.63-13.692-16.59-26.738-25.24-39.368-5.48-7.982-11.15-16.256-16.42-24.592-1.07-1.688-2.15-3.376-3.23-5.064-6.82-10.671-13.88-21.695-18.09-33.574-6.61-18.611-5.59-32.428 3.02-41.098 9.63-9.691 22.8-9.316 39.12 1.125l7.79 5.002c17.63 11.316 35.85 23.008 54.85 32.845 59.29 30.656 114.15 19.486 163.04-33.2 24.61-26.53 48.58-46.828 73.09-61.938h-7.8c-22.88 14.901-45.35 34.325-68.33 59.104-47.46 51.164-100.64 62.022-158.08 32.345-18.82-9.733-36.97-21.382-54.5-32.657l-7.79-5.002c-17.95-11.462-33.26-11.65-44.31-.542-9.84 9.9-11.19 25.176-4 45.433 4.38 12.337 11.57 23.571 18.51 34.428 1.08 1.689 2.14 3.377 3.2 5.044 5.3 8.399 11.01 16.693 16.51 24.717 8.61 12.546 17.51 25.509 25.03 39.034 16.36 29.386 30.28 61.168 43.72 91.887 28.74 65.585 58.44 133.401 113.77 182.939 29.85 26.738 9.94 65.377 0 80.757-12.38 19.132-23.76 36.075-37.89 49.643-29.94 28.739-51.2 70.587-59.83 117.791-8.86 48.413-3.4 98.159 15.38 140.112 26.57 59.354 42 126.419 47.16 204.863h4.19c-5.19-79.09-20.73-146.676-47.56-206.572-37.11-82.925-17.98-194.152 43.54-253.193l.02-.021Z"/>
    <path fill="#544A4A"
          d="M1907.92.063c-16.11 7.794-33.45 13.442-51.77 16.776-34.41 6.252-66.88 25.863-93.89 56.708-42.47 48.496-86.24 83.3-133.79 106.433-26.33 12.796-37.64 33.22-36.68 66.231 2 68.358 28.49 123.898 80.96 169.831 9.57 8.378 20.55 18.673 29.37 31.656 25.13 36.951 27.67 76.632 7.56 117.979-12.98 26.697-32.57 48.142-51.52 68.879l-5.35 5.856c-47.54 52.31-61.67 112.748-39.81 170.226 31.47 82.737 44.66 166.496 57.29 259.362h4.21c-12.69-93.345-25.9-177.541-57.6-260.841-21.28-55.916-7.42-114.853 38.99-165.934l5.34-5.856c19.13-20.966 38.93-42.64 52.18-69.879 20.82-42.785 18.18-83.862-7.85-122.146-9.09-13.359-20.3-23.884-30.08-32.429-51.56-45.119-77.59-99.68-79.55-166.808-.91-31.574 9.34-50.226 34.33-62.376 48.08-23.362 92.26-58.5 135.11-107.433 26.36-30.115 58-49.247 91.49-55.353 21.49-3.918 41.68-10.941 60.15-20.883h-9.13.04ZM2215.55 1069.98c12.08-4.29 24.07-9.05 35.72-14.24 42.1-18.75 78.73-13.94 109.04 14.24h6c-32.22-32.12-71.49-38.2-116.73-18.05-15.26 6.8-31.05 12.84-46.98 18.05h12.97-.02ZM793.653 885.998c-16.485-47.6-37.534-92.866-55.936-130.859-25.155-51.935-52.331-82.966-88.135-100.681-77.861-38.493-128.254-105.016-149.761-197.736l-.063-.292c-.229-1-.458-2.021-.771-3.001-27.635-91.177-29.781-92.761-114.936-85.655-81.529 6.836-145.822-23.737-191.067-90.823C147.927 210.157 86.468 160.327.042 120.688v4.585c84.78 39.159 145.175 88.302 189.462 153.991 46.141 68.441 111.706 99.618 194.86 92.658 55.616-4.655 92.483 22.917 110.601 82.716.271.896.479 1.813.688 2.73l.062.292c21.82 93.991 72.942 161.473 151.97 200.529 34.929 17.256 61.522 47.725 86.239 98.763 18.36 37.889 39.326 83.009 55.748 130.4 21.383 61.73 58.813 114.668 114.436 161.828a678.299 678.299 0 0 0 25.759 20.78h6.857a695.82 695.82 0 0 1-29.906-23.95c-55.041-46.66-92.074-99.012-113.207-160.012h.042Z"/>
    <path fill="#544A4A"
          d="m1026.67 1064.87-2.46-.91c-98.282-36.68-157.823-92.307-187.355-175.002-14.546-40.765-32.136-80.57-49.121-119.084-5.273-11.962-10.566-23.925-15.755-35.929-23.759-54.852-59.125-94.554-105.079-118-64.21-32.74-102.286-86.509-116.395-164.391-7.544-41.681-16.693-82.466-28.114-130.879-4.897-20.82-12.859-33.803-24.321-39.659-10.608-5.419-23.904-4.669-40.702 2.292-10.378 4.293-20.465 9.816-30.219 15.151-6.898 3.772-14.046 7.67-21.194 11.087-73.172 35.013-135.194 21.174-174.666-38.951C170.81 178.438 85.801 125.628 3.897 79.445c-1.25-.709-2.563-1.375-3.855-2.063v4.71c.604.333 1.208.646 1.792.98 81.466 45.932 165.995 98.43 225.975 189.795 20.069 30.573 45.933 49.621 76.881 56.666 31.094 7.065 65.773 1.604 103.057-16.235 7.252-3.46 14.442-7.399 21.382-11.192 9.67-5.272 19.653-10.733 29.802-14.963 15.589-6.461 27.76-7.274 37.201-2.439 10.295 5.273 17.548 17.34 22.174 36.909 11.4 48.35 20.528 89.073 28.073 130.671 14.359 79.257 53.143 133.984 118.604 167.35 45.703 23.3 79.444 61.23 103.14 115.937 5.21 12.025 10.483 23.987 15.776 35.95 16.965 38.451 34.513 78.194 49.018 118.791 29.968 83.946 90.302 140.358 189.813 177.498l2.46.92c1.09.4 2.17.81 3.25 1.21h12.01c-4.61-1.69-9.21-3.4-13.78-5.11v.04Z"/>
    <path fill="#544A4A"
          d="M812.472 900.711c-19.319-48.892-39.305-99.451-62.438-149.031-26.406-56.561-59.334-92.991-103.599-114.623-66.628-32.553-110.289-88.636-129.775-166.684-3.314-13.275-7.565-26.447-11.671-39.201-1.479-4.627-2.98-9.232-4.418-13.859-19.257-61.605-41.952-76.256-101.181-65.294-77.944 14.422-138.569-6.106-180.147-60.979-54.269-71.63-104.369-119.897-162.473-156.493C35.637 121.23 16.964 111.477 0 104.849v4.46c16.318 6.523 34.262 15.985 54.54 28.76 57.666 36.326 107.433 84.28 161.369 155.492 42.015 55.457 105.704 77.111 184.21 62.564 57.104-10.545 77.819 2.855 96.43 62.438a2688.95 2688.95 0 0 0 4.418 13.901c4.085 12.692 8.295 25.801 11.588 38.93 19.798 79.299 64.209 136.298 131.983 169.414 43.37 21.195 75.673 56.978 101.64 112.644 23.091 49.475 43.057 99.972 62.355 148.802 31.678 80.174 89.594 129.916 143.446 167.746h7.274c-54.686-37.89-114.624-87.697-146.864-169.268l.083-.021ZM2352.55 512.492c-22.38-3.939-40.93-11.941-56.7-24.446-32.14-25.509-68.65-42.765-103.96-59.437-22.15-10.483-45.08-21.299-66.6-34.033-6.05-3.585-12.09-4.939-18.18-4.939-7.98 0-16 2.334-24.11 5.064-9.42 3.147-18.88 6.69-28.03 10.108-18.53 6.919-37.7 14.067-57.21 18.339-51.58 11.296-94.7-.375-131.77-35.7-4.38-4.168-8.84-8.273-13.28-12.379-15.75-14.547-32.05-29.594-45.18-47.704-11.71-16.152-24.43-37.742-18.82-61.688 14.28-60.772 30.68-99.702 53.25-126.211 25.94-30.511 61.56-44.808 108.93-43.766 62.38 1.376 79.01-12.712 93.81-79.382 1.22-5.522 2.68-10.94 4.29-16.234h-4.4a236.955 236.955 0 0 0-3.98 15.318c-14.34 64.668-29.41 77.485-89.64 76.13-103.74-2.396-141.52 67.545-166.32 173.186-6.01 25.592 7.27 48.225 19.5 65.085 13.38 18.444 29.83 33.616 45.73 48.309 4.42 4.085 8.85 8.169 13.23 12.338 38.16 36.346 82.51 48.35 135.55 36.742 19.8-4.335 39.1-11.546 57.77-18.507 9.13-3.397 18.55-6.919 27.9-10.045 13.36-4.46 26.37-7.878 38.85-.5 21.7 12.838 44.7 23.716 66.94 34.22 35.1 16.589 71.38 33.741 103.14 58.937 16.32 12.942 35.47 21.216 58.56 25.28 43.16 7.607 88.62 19.423 147.39 38.284 8.98 2.876 17.05 6.148 24.47 9.879v-4.648c-7.09-3.438-14.76-6.481-23.2-9.19-58.96-18.924-104.58-30.782-147.95-38.431l.02.021Z"/>
    <path fill="#544A4A"
          d="M2221.19 286.83c-.27-.208-.52-.354-.7-.479-.3-.459-.67-.917-1.09-1.397-30.42-35.887-58.39-60.896-88.03-78.652-18.13-10.879-25.01-26.655-21.61-49.664 1.73-11.754 3.25-23.737 4.69-35.345 2.54-20.32 5.19-41.306 9.15-61.689 4.5-23.216 12.23-42.723 23.46-59.52h-4.98c-10.73 16.735-18.15 36.012-22.57 58.728-3.98 20.529-6.62 41.598-9.19 61.981-1.46 11.566-2.96 23.529-4.69 35.262-3.62 24.529 4.09 42.14 23.6 53.831 29.23 17.527 56.87 42.244 86.98 77.778.13.145.23.27.32.375l-.23.625 1.46.896c.18.125.5.313 1 .688 69.6 49.642 137.02 101.848 200.13 151.053 29.8 23.237 67.65 27.405 104.77 28.447v-4.168c-37.54-1.021-73.28-5.002-102.21-27.572-63.12-49.247-130.61-101.494-200.28-151.157l.02-.021ZM2148.88 597.043c30.22-3.772 58.21-16.444 88.07-39.868 49.87-39.139 64.9-39.264 114.81-1.022 35.37 27.114 74.24 48.601 111.83 69.4 19.86 10.983 40.29 22.341 60.11 34.428v-4.876c-19.22-11.629-38.91-22.592-58.09-33.199-37.45-20.716-76.17-42.14-111.31-69.046-50.99-39.097-68.94-38.93-119.91 1.043-29.24 22.945-56.57 35.324-86.01 39.013-39.25 4.898-77.59 13.401-114 25.259-42.56 13.859-87.82 16.631-134.55 8.17-56.08-10.129-108.18 5.668-154.89 46.995-31.17 27.572-46.3 61.48-46.22 103.641.04 28.01 2.23 57.145 6.88 91.719 2.64 19.716 4.21 39.931 5.71 59.5 2.52 32.887 5.14 66.878 13 99.6 3.92 16.34 9.38 30.49 16.2 42.16h4.85c-7.21-11.71-12.92-26.2-16.98-43.14-7.78-32.388-10.38-66.233-12.9-98.932-1.53-19.611-3.07-39.91-5.74-59.73-4.6-34.387-6.79-63.355-6.83-91.177-.06-40.89 14.59-73.776 44.83-100.515 45.7-40.431 96.63-55.894 151.38-46.016 47.42 8.566 93.37 5.773 136.57-8.315 36.16-11.796 74.26-20.236 113.23-25.092h-.04ZM2523.68 985.637c-28.76-1.521-54.77-12.754-75.7-32.845-49.06-47.12-109.85-68.69-168.64-89.573-37.22-13.212-66.98-2.459-90.95 32.866-52.91 78.027-120.54 136.525-200.94 173.875h9.69c77.63-37.79 143.11-95.452 194.71-171.541 23.07-34.012 50.44-43.953 86.11-31.282 58.38 20.716 118.73 42.161 167.17 88.657 21.38 20.528 48.97 32.386 78.57 33.97v-4.148l-.02.021Z"/>
    <path fill="#544A4A"
          d="M2523.68 673.59c-9.11-5.397-18.34-11.483-28.72-18.589-22.18-15.152-45.85-28.302-68.76-41.036-37.88-21.07-77.07-42.848-110.35-74.151-14.73-13.859-34.01-5.96-47.12 6.065-52.31 47.913-114.85 61.001-174.41 70.295-18.82 2.939-37.62 8.087-55.79 13.047-32.66 8.94-66.42 18.173-101.33 14.838-2.54-.25-5.11-.458-7.67-.688-9.09-.791-18.46-1.604-27.47-3.417-56.04-11.233-107.24 4.876-156.47 49.204-37.6 33.846-37.26 80.445-33.99 121.439l1.37 17.464c4.53 57.395 9.2 116.749 18.43 174.269 4.75 29.59 11.81 51.79 21.59 67.63h4.94c-10.19-15.47-17.53-37.83-22.43-68.3-9.19-57.35-13.86-116.62-18.38-173.932l-1.37-17.465c-3.34-41.848-3.57-85.425 32.63-118.02 48.19-43.39 98.2-59.167 152.87-48.225 9.23 1.854 18.73 2.688 27.93 3.48 2.54.229 5.08.438 7.62.688 35.66 3.397 69.8-5.94 102.83-14.964 18.07-4.939 36.74-10.045 55.33-12.942 60.19-9.399 123.4-22.633 176.59-71.337 11.73-10.754 28.8-18.007 41.45-6.107 33.68 31.657 73.09 53.582 111.18 74.756 22.82 12.692 46.39 25.8 68.42 40.826 11.26 7.691 21.18 14.214 31.05 19.966v-4.835l.03.041Z"/>
    <path fill="#544A4A"
          d="M1738.92 394.451c-14.42-8.253-32.93-19.924-48.18-36.951-35.93-40.118-36.29-84.404-1-124.668 8.98-10.233 19.38-19.695 31.8-28.906 24.74-18.34 45.97-40.431 63.08-65.607 31.18-45.849 72.78-72.775 123.63-80.028 42.75-6.085 72.32-24.654 92.78-58.25h-4.87c-19.74 31.074-48.02 48.351-88.49 54.124-52.08 7.42-94.64 34.95-126.48 81.799-16.86 24.78-37.75 46.517-62.13 64.585-12.67 9.4-23.28 19.049-32.45 29.511-36.32 41.452-35.95 88.906 1.04 130.191 15.65 17.486 34.54 29.365 49.21 37.784 32.99 18.903 50.52 51.664 50.66 94.763.19 52.706-16.98 95.033-51.02 125.794-13.35 12.066-23.92 22.633-33.26 33.199-39.09 44.37-52.22 93.012-40.16 148.719l.57 2.563c11.58 53.435 23.55 108.684 27.63 164.62l.12 1.73c2.44 33.347 4.96 67.797 15.41 100.517h4.35c-10.63-32.62-13.17-67.3-15.61-100.809l-.12-1.73c-4.11-56.228-16.11-111.622-27.72-165.203l-.56-2.564c-11.78-54.31 1.06-101.765 39.22-145.071 9.21-10.462 19.67-20.903 32.93-32.866 34.97-31.594 52.58-74.964 52.39-128.899-.17-44.662-18.4-78.674-52.77-98.368v.021Z"/>
    <path fill="#544A4A"
          d="M2389.63 506.261c-8.46-2.335-17.65-3.522-26.57-4.669-16.95-2.167-32.93-4.209-44.04-13.567-26.49-22.341-56.54-37.159-85.59-51.476-20.66-10.191-42-20.716-61.63-33.783-42.99-28.614-81.71-31.636-125.56-9.795-75.65 37.659-140.91 25.988-193.92-34.741-4.99-5.711-10.51-11.192-15.84-16.506-19.22-19.111-37.39-37.138-37.31-68.378.21-90.24 67.48-163.745 149.97-163.891 73.23-.125 92.39-16.34 107.77-91.365a190.274 190.274 0 0 1 4.62-18.027h-4.35a200.038 200.038 0 0 0-4.36 17.193c-14.98 73.13-32.42 87.927-103.68 88.052-84.78.146-153.93 75.526-154.14 168.038-.08 32.97 19.55 52.476 38.54 71.337 5.29 5.252 10.75 10.671 15.63 16.277 54.43 62.334 121.35 74.338 198.92 35.741 42.37-21.09 79.8-18.152 121.4 9.545 19.86 13.213 41.33 23.8 62.08 34.054 28.83 14.213 58.65 28.927 84.76 50.935 12.05 10.149 29.41 12.358 46.21 14.505 8.75 1.125 17.81 2.271 25.98 4.543 12.93 3.584 26.16 6.836 38.96 9.983 32.05 7.877 65.1 16.026 96.22 30.135v-4.564c-30.95-13.796-63.57-21.841-95.22-29.615-12.76-3.126-25.95-6.377-38.83-9.941l-.02-.02ZM2186.72 883.518c21.03-32.053 48.17-43.244 80.66-33.241 69.9 21.508 136.9 45.162 188.5 97.868 16.9 17.277 40.66 27.176 67.8 28.468v-4.168c-25.91-1.271-48.71-10.775-64.82-27.218-52.29-53.415-119.83-77.277-190.25-98.951-33.99-10.462-63.5 1.625-85.37 34.929-59.02 89.927-135.54 153.425-227.43 188.755h11.3c88.38-36.33 162.22-98.995 219.63-186.463l-.02.021Z"/>
    <path fill="#544A4A"
          d="M2523.68 1034.45c-35.77 4.93-69.22-7.97-99.41-38.393-36.5-36.783-78.68-57.874-128.99-64.46-33.34-4.376-61.56 5.773-88.78 31.928-44.49 42.745-93.84 77.585-150.74 106.475h9.09c54.25-28.34 101.64-62.25 144.55-103.474 26.24-25.196 53.35-35.012 85.36-30.802 49.35 6.481 90.76 27.176 126.57 63.272 31.01 31.264 65.44 44.554 102.37 39.664v-4.19l-.02-.02ZM308.962 21.508c11.629-5.94 23.78-11.275 35.513-16.444 3.751-1.646 7.523-3.334 11.275-5.002h-10.254l-2.688 1.188c-11.796 5.19-23.988 10.546-35.742 16.527C236.708 53.685 165.579 49.1 83.216 3.397c-1.98-1.105-3.938-2.23-5.918-3.334h-8.461c4.126 2.334 8.232 4.689 12.358 6.981C164.87 53.477 237.25 58.083 308.962 21.507Z"/>
    <path fill="#544A4A"
          d="M483.419.063c-19.944 17.297-42.431 33.22-68.503 48.475-5.71 3.334-11.817 6.44-17.714 9.44-14.089 7.17-28.656 14.568-39.66 25.989-47.267 49.059-96.701 36.263-151.783 15.964C137.756 74.9 73.734 38.159 11.837 2.626L7.336.063H.042v.625l9.711 5.564C71.817 41.87 135.985 78.694 204.321 103.87c27.468 10.128 53.582 18.402 78.778 18.402 26.634 0 52.268-9.253 77.444-35.387 10.524-10.92 24.758-18.174 38.555-25.176 5.96-3.043 12.129-6.169 17.944-9.566 27.864-16.318 51.664-33.387 72.692-52.08h-6.315Z"/>
    <path fill="#544A4A"
          d="M273.492.063c-15.86 7.023-31.699 13.42-47.267 19.069C180.73 35.617 132.671 30.26 83.383 3.23a776.687 776.687 0 0 1-5.69-3.167h-8.502c4.043 2.292 8.107 4.584 12.17 6.814 31.303 17.173 62.148 25.78 92.221 25.78 18.339 0 36.367-3.188 54.06-9.607 18.423-6.67 37.222-14.422 55.999-22.988h-10.149Z"/>
    <path fill="#544A4A"
          d="M253.839.063h-10.67c-45.725 18.256-90.803 18.256-137.007 0H95.388c53.56 23.862 105.516 23.862 158.451 0Z"/>
    <path fill="#544A4A"
          d="M379.758.063C350.06 16.005 318.382 27.905 287.58 39.41a2743.774 2743.774 0 0 0-18.298 6.877c-64.835 24.592-125.565 1.938-176.437-23.466C77.861 15.338 63.335 7.23 50.976.082h-8.294C56.29 8.044 73.296 17.715 90.969 26.551c35.909 17.944 76.673 34.512 120.48 34.512 19.236 0 39.055-3.189 59.292-10.879 6.085-2.313 12.191-4.585 18.277-6.856 33.241-12.421 67.565-25.26 99.431-43.245h-8.712l.021-.02ZM2523.68 1046.68c-7.34 1.46-14.74 2.67-22.07 3.58-32.93 4.15-61.23-5.35-86.49-29.07-72.28-67.793-121.42-72.316-202.28-18.59-24.49 16.28-50.54 27.39-72.8 36.12-24.44 9.58-48.83 20.59-72.42 31.26h10.13c20.9-9.42 42.35-18.97 63.81-27.39 22.47-8.81 48.77-20.02 73.59-36.53 40.91-27.175 72.15-38.158 101.24-35.595 29.45 2.605 59.03 19.174 95.89 53.745 26.22 24.62 55.61 34.47 89.87 30.16 7.17-.9 14.38-2.06 21.55-3.46v-4.25l-.02.02Z"/>
    <path fill="#544A4A"
          d="M2238.78 1069.98h9.42c34.75-16.11 65.86-16.09 92.72 0h7.67c-31.28-21.7-68.21-21.72-109.81 0ZM1652.08 983.741c-5.25-49.038-20.74-92.908-38.93-141.071-31.53-83.466-17.4-156.909 41.95-218.284 27.39-28.302 55.69-57.583 60.17-103.745 3.5-36.054-10.21-66.836-40.75-91.49-64.71-52.29-94.38-118.855-90.67-203.488.98-22.612 7.42-35.784 20.25-41.494 68.38-30.407 122.23-84.613 174.31-137.048l1.84-1.834c20.4-20.549 46.83-33.887 76.38-38.555a196.554 196.554 0 0 0 28.24-6.648h-16.01c-4.23.958-8.52 1.834-12.88 2.542-30.42 4.814-57.64 18.548-78.69 39.743l-1.83 1.834c-51.81 52.164-105.37 106.1-173.04 136.173-14.45 6.419-21.66 20.757-22.72 45.12-3.77 86.051 26.4 153.741 92.22 206.906 29.36 23.716 42.56 53.289 39.2 87.843-4.33 44.724-32.14 73.463-59 101.244-60.58 62.626-74.98 137.548-42.85 222.661 18.09 47.892 33.49 91.49 38.68 140.049 1.34 12.4 2.5 25.071 3.63 37.301 1.46 15.91 3 32.33 4.9 48.5h4.19c-1.92-16.28-3.44-32.82-4.92-48.87-1.13-12.26-2.3-24.927-3.63-37.369l-.04-.02Z"/>
    <path fill="#544A4A"
          d="M1975.88.063c-27.34 27.8-60.15 44.848-100.06 51.997-29.4 5.273-56.45 21.987-80.38 49.705-32.82 38.013-71.57 71.129-105.74 100.347-33.2 28.385-50 58.417-49.94 89.282.09 31.24 17.4 61.73 51.52 90.615 2.1 1.792 4.23 3.564 6.36 5.356 5.67 4.772 11.54 9.691 17.17 14.693 61.71 54.706 67.94 138.965 15.13 204.925-7.34 9.17-15.32 17.965-23.05 26.489-12.98 14.317-26.41 29.114-37.35 46.224-22.86 35.721-29.17 72.901-19.27 113.624 4.18 17.214 8.98 34.553 13.63 51.33 11.54 41.681 23.48 84.801 26.86 129.441.44 5.669.81 11.338 1.21 17.027 1.77 25.992 3.6 52.852 9.77 78.882h4.32c-6.28-26.01-8.15-53.02-9.94-79.174-.38-5.689-.78-11.379-1.21-17.047-3.42-45.037-15.41-88.344-27.01-130.233-4.63-16.735-9.42-34.054-13.61-51.206-9.63-39.555-3.48-75.672 18.73-110.393 10.78-16.818 24.07-31.49 36.93-45.682 7.78-8.566 15.8-17.423 23.22-26.676 26.05-32.533 38.83-71.442 36.01-109.56-2.81-38.159-21.15-74.046-51.64-101.077-5.67-5.043-11.57-9.982-17.26-14.776a771.328 771.328 0 0 1-6.33-5.356c-33.14-28.051-49.98-57.478-50.06-87.447-.06-29.594 16.23-58.562 48.47-86.093 34.31-29.302 73.18-62.522 106.21-100.785 23.28-26.968 49.51-43.224 77.96-48.33 42.18-7.544 76.59-25.946 105.1-56.102h-5.77.02ZM2198.08 960.878c15.24-16.235 29.64-31.573 50.6-35.929 63.48-13.192 124.17 7.398 175.56 59.5 30.93 31.361 63.55 45.011 99.46 41.511v-4.19c-35.08 3.65-65.94-9.29-96.5-40.239-52.43-53.164-114.45-74.151-179.37-60.646-22.24 4.627-37.76 21.174-52.79 37.159-7.71 8.232-15.69 16.735-24.43 23.383-46.16 35.163-94.8 64.943-144.59 88.573h9.61c47.31-23.13 93.53-51.77 137.51-85.259 9-6.857 17.11-15.485 24.94-23.842v-.021Z"/>
    <path fill="#544A4A"
          d="M2523.68 1059.98a353.414 353.414 0 0 1-39.33 4.14c-29.45 1.46-54.46-9.06-76.47-32.15-38.65-40.581-100.18-86.743-187.6-19.18-27.99 21.64-60.88 33.74-92.66 45.44-10.17 3.75-20.65 7.6-30.89 11.75h11.38c7.01-2.69 14.05-5.29 20.97-7.84 32.09-11.81 65.27-24.03 93.78-46.03 84.76-65.506 144.49-20.678 182.04 18.73 22.91 24.03 48.96 34.97 79.7 33.45 13.4-.67 26.51-2.06 39.12-4.08v-4.23h-.04ZM2011.14.063c-20.61 39.743-52.31 61.084-99.28 66.877-51.58 6.377-92.97 33.366-123.02 80.237-16.82 26.238-40.02 49.705-67.05 67.815-21.15 14.193-35.72 30.156-44.58 48.83-19.13 40.41 1.07 85.801 50.29 112.914 31.16 17.173 63.84 41.515 70 91.866 8.22 67.023-10.08 121.438-54.41 161.723-32.22 29.281-61.88 59.5-70.9 107.183-3.46 18.278-2.56 37.034 2.86 59.021 12.73 51.852 19.4 105.787 25.84 157.93 3 24.217 6.08 49.251 9.75 73.781 2.4 16.02 5.44 29.71 9.28 41.72h4.39c-3.96-12.09-7.1-25.95-9.54-42.33-3.65-24.47-6.75-49.475-9.73-73.671-6.47-52.268-13.16-106.329-25.95-158.409-5.34-21.696-6.19-39.348-2.79-57.27 8.79-46.413 37.95-76.09 69.6-104.871 45.39-41.243 64.15-96.867 55.75-165.307-6.4-52.227-40.05-77.319-72.13-94.992-47.16-25.988-66.67-69.191-48.53-107.475 8.52-17.986 22.63-33.408 43.14-47.163 27.48-18.444 51.08-42.306 68.21-69.045 29.34-45.766 69.73-72.129 120.02-78.36 49.24-6.086 82.23-28.698 103.49-71.025h-4.73l.02.02Z"/>
    <path fill="#544A4A"
          d="M1681.07 963.588c-4.73-44.453-14.44-87.114-29.64-130.421-27.49-78.298-13.44-143.53 42.95-199.424 30.68-30.407 60.82-64.669 63.28-119.417 1.91-42.89-13.13-76.298-47.42-105.183-3.96-3.334-7.96-6.606-11.98-9.878-19.32-15.735-39.3-32.032-52.43-55.936-24.01-43.724-19.14-90.699 12.73-122.606 21.76-21.757 44.66-42.89 66.81-63.335 29.35-27.072 59.71-55.081 87.85-84.967 21.88-23.237 52.91-29.906 82.92-36.367 2.21-.479 4.42-.958 6.61-1.438 26.03-5.69 47.77-17.318 64.73-34.616h-5.94c-15.94 15.089-35.97 25.363-59.69 30.532-2.18.479-4.39.958-6.6 1.417-30.64 6.585-62.32 13.4-85.07 37.575-28.06 29.782-58.34 57.729-87.64 84.759-22.19 20.466-45.14 41.64-66.94 63.46-33.24 33.262-38.39 82.133-13.44 127.545 13.52 24.633 33.82 41.16 53.45 57.166 3.99 3.251 7.99 6.502 11.93 9.836 33.19 27.968 47.78 60.313 45.93 101.807-2.4 53.248-31.97 86.822-62.04 116.645-57.65 57.145-72.03 123.793-43.96 203.759 15.09 42.994 24.72 85.363 29.43 129.483 1.21 11.42 2.1 23.133 2.98 34.449 1.79 23.527 3.67 47.827 8.59 71.507h4.23c-4.98-23.68-6.86-48.14-8.67-71.819-.88-11.338-1.75-23.071-2.98-34.575l.02.042ZM2367.04 414.166c-29.28-33.283-63.88-59.479-102.83-77.861-21.49-10.128-38.64-23.362-52.41-40.431-29.91-37.013-61.15-64.397-95.52-83.716-14.63-8.212-20.78-20.237-19.4-37.805 3.69-46.788 8.36-96.492 21.17-144.613 2.8-10.525 6.82-20.487 11.97-29.677h-4.75c-4.78 8.92-8.55 18.506-11.24 28.614-12.88 48.454-17.59 98.388-21.3 145.363-1.5 19.132 5.53 32.782 21.51 41.765 33.91 19.069 64.75 46.12 94.3 82.716 14.2 17.569 31.81 31.157 53.88 41.577 38.43 18.132 72.56 43.974 101.47 76.84 15.17 17.235 33.85 30.906 57.15 41.827 35.8 16.756 72.73 21.695 102.61 23.591v-4.168c-29.46-1.896-65.77-6.794-100.84-23.195-22.76-10.65-41.02-23.988-55.79-40.806l.02-.021ZM1415.6 973.195c-7.42 0-16.13-2.522-27.03-7.732-12.38-5.898-22.88-14.505-33.05-22.841-81.45-66.711-162.79-75.193-248.65-25.947-25.35 14.526-56.88 32.616-92.1 25.447-47.869-9.754-67.647-50.643-83.798-91.678-39.16-99.473-81.529-173.874-133.359-234.187-22.446-26.113-50.747-45.411-78.111-64.084-4.21-2.876-8.42-5.753-12.629-8.649-46.162-31.907-69.608-81.425-67.753-143.196 1.709-57.395 31.219-99.223 85.28-121.001 30.448-12.275 55.686-21.341 79.423-28.552 29.781-9.045 54.394-17.172 77.111-32.303 43.494-28.927 90.344-52.331 135.656-74.943 38.2-19.069 77.71-38.805 114.93-61.73 35.62-21.945 73.36-19.548 109.12 6.899 44.6 32.99 83.09 64.043 117.65 94.908 51.85 46.308 85.99 103.89 101.45 171.143 8.13 35.346 21.55 70.692 39.85 105.058 14.21 26.676 20.53 48.6 19.3 67.002-.38 32.512-7.65 57.062-15.09 79.424-25.22 75.86-37.87 160.848-38.66 259.82-.23 28.448-4.86 52.623-14.17 73.922-7.92 18.11-15.82 27.822-25.66 31.49-3.02 1.126-6.25 1.688-9.77 1.688l.06.042Zm-201.13-91.886c7.04 0 14.04.416 21.03 1.208 41.18 4.794 82.44 23.946 122.66 56.874 9.97 8.17 20.28 16.61 32.2 22.3 14.97 7.148 25.32 8.961 33.53 5.877 8.7-3.23 15.86-12.254 23.28-29.26 9.07-20.778 13.59-44.412 13.82-72.276.81-99.409 13.53-184.814 38.87-261.091 7.33-22.049 14.52-46.266 14.88-78.215v-.125c1.19-17.631-4.96-38.826-18.82-64.814-18.46-34.679-32.01-70.358-40.22-106.079-15.28-66.398-48.98-123.252-100.18-168.976-34.47-30.782-72.84-61.751-117.36-94.658-34.3-25.363-70.42-27.677-104.47-6.71-37.39 23.028-76.99 42.785-115.27 61.917-45.183 22.57-91.908 45.891-135.194 74.693-23.196 15.442-48.079 23.654-78.215 32.824-23.612 7.169-48.725 16.213-79.069 28.426-52.435 21.112-81.008 61.647-82.675 117.27-1.813 60.292 21.007 108.58 65.961 139.633 4.189 2.896 8.398 5.752 12.608 8.628 27.593 18.819 56.124 38.284 78.924 64.793 52.143 60.667 94.741 135.464 134.067 235.374 15.735 39.973 34.929 79.778 80.753 89.115 33.68 6.877 63.17-10.045 89.2-24.967 36.81-21.112 73.61-31.761 109.65-31.761h.04ZM978.468.063h-5.315c5.523 6.502 8.941 14.13 10.4 23.216 3.272 20.382-3.668 35.742-22.508 49.83-78.736 58.791-155.325 74.234-234.144 47.204-26.906-9.232-43.391-23.717-47.705-41.89-4.501-19.048 4.544-40.785 26.197-62.855 5.919-6.023 12.442-11.212 19.465-15.505h-7.607a104.6 104.6 0 0 0-14.817 12.587c-22.696 23.133-32.137 46.204-27.281 66.732 4.648 19.632 22.07 35.158 50.393 44.87 25.488 8.753 50.747 13.129 75.902 13.129 53.998 0 107.558-20.215 162.098-60.938 19.965-14.9 27.635-32.01 24.133-53.81-1.396-8.649-4.418-16.09-9.19-22.55l-.021-.02ZM1719.27.063c-4.36 3.73-8.75 7.627-13.15 11.67-34.87 32.116-77.97 60.688-133.22 29.156-19.06-10.879-35.01-24.613-47.57-40.827h-5.21c13.17 17.757 30.19 32.741 50.72 44.454 17.76 10.128 34.28 14.338 49.71 14.338 34.55 0 63.52-21.153 88.4-44.057A496.223 496.223 0 0 1 1725.69.062h-6.42ZM753.535 836.043c-26.885-89.177-70.254-146.552-132.589-175.374-71.275-32.97-120.583-93.846-150.761-186.149-17.673-54.102-51.518-80.09-113.143-86.926-72.505-8.045-131.317-42.64-174.77-102.89-28.322-39.243-67.92-88.135-123.022-118.042-20.966-11.379-40.91-22.174-59.208-29.823v4.502c17.651 7.523 36.97 18.006 57.228 28.989 54.373 29.49 93.553 77.923 121.626 116.812 44.182 61.23 103.974 96.409 177.708 104.578 59.75 6.628 92.553 31.761 109.642 84.071 30.553 93.45 80.591 155.159 152.971 188.629 61.167 28.302 103.807 84.801 130.337 172.79 26.78 88.822 73.046 162.93 145.343 232.75h6.023c-73.568-70.173-120.418-144.553-147.365-233.938l-.02.021ZM2523.68 901.066c-5.36-1.876-10.9-4.418-16.59-7.649-27.14-15.38-55.31-29.593-82.55-43.327-40.85-20.591-83.07-41.89-122.44-67.482-10.26-6.669-17.63-12.776-23.22-19.236-3.27-3.793-6.94-7.44-10.5-10.983-14.82-14.735-28.8-28.635-20.3-54.728 9.04-27.76 46.12-49.33 84.59-49.33h.69c22.32 2.501 64.13 11.567 94.14 44.12 31.47 34.137 63.02 62.668 96.18 87.01v-5.19c-32.06-23.779-62.61-51.559-93.12-84.633-30.97-33.596-73.96-42.891-96.83-45.454h-1.06c-40.82 0-78.8 22.341-88.53 52.206-9.29 28.552 6.27 44.015 21.32 58.979 3.5 3.48 7.13 7.086 10.3 10.754 5.83 6.773 13.5 13.108 24.09 20.007 39.55 25.696 81.88 47.058 122.83 67.69 27.2 13.713 55.33 27.906 82.36 43.223 6.4 3.627 12.63 6.419 18.66 8.42v-4.397h-.02Z"/>
    <path fill="#544A4A"
          d="M1850.73 1068.94c-57.71 0-86.53-30.7-95.78-101.018-.92-6.919-2-14.004-3.04-20.84-3.65-23.717-7.44-48.246-4.59-71.755-2.19-24.842 1.69-47.912 5.44-70.253.92-5.44 1.83-10.858 2.65-16.277 5.02-33.324 25.88-57.478 55.81-64.606 96.7-23.05 191.92-25.488 282.99-7.211 29.2 5.857 46.23 14.839 55.25 29.115 10.3 16.318 10.36 39.347.23 79.528-13.5 53.539-54.62 112.331-112.81 161.327-58.44 49.18-122.96 78.99-177.04 81.76-3.11.16-6.15.25-9.09.25l-.02-.02Zm120.56-359.9c-52.26 0-105.45 6.398-159.11 19.194-28.2 6.732-47.87 29.594-52.65 61.188-.81 5.44-1.73 10.879-2.64 16.36-3.71 22.133-7.57 45.037-5.38 69.42v.459c-2.83 23.008.92 47.329 4.54 70.837 1.07 6.857 2.15 13.943 3.07 20.924 9.37 71.238 39.45 100.308 100.51 97.158 111.04-5.71 258.05-129.044 286.02-239.937 9.81-38.93 9.9-61.042.29-76.277-8.36-13.233-24.55-21.632-52.54-27.259-39.97-8.024-80.74-12.025-122.08-12.025l-.03-.042ZM1970.84 334.513c-16.41 0-33.1-6.273-48.75-18.736-28.68-22.82-41.29-53.915-36.47-89.885 5.08-38.014 26.09-55.02 68.13-55.124h.04c30.28.604 61.85 7.294 96.49 20.382 12.86 4.877 20.92 11.567 24.63 20.507 3.98 9.608 2.73 21.383-3.85 35.992-13.21 29.365-33.89 54.665-59.79 73.213-12.74 9.108-26.49 13.651-40.43 13.651Zm-17.11-159.577c-39.52.104-59.25 15.985-64.01 51.518-4.6 34.45 7.49 64.21 34.95 86.072 27.41 21.82 58.09 23.633 84.18 4.96 25.3-18.11 45.52-42.848 58.42-71.525 6.08-13.505 7.31-24.196 3.79-32.678-3.23-7.815-10.53-13.755-22.26-18.194-34.18-12.921-65.27-19.507-95.07-20.111v-.042ZM2003.91 542.69c-8.02 0-11.55-4.835-13.07-9.42-3.27-9.899 2.88-17.652 9.96-20.653 11.74-4.981 23.91-9.337 35.66-13.546 4.75-1.709 9.53-3.397 14.26-5.148l.31-.125h.33c3.8-.125 11.67-.375 15.32 6.481 5.05 9.483-2.92 15.527-6.75 18.423-13.69 10.379-29.74 17.903-49.1 22.988-2.63.687-4.94 1-6.96 1h.04Zm47.95-44.745c-4.64 1.709-9.31 3.376-13.98 5.044-11.71 4.189-23.8 8.503-35.43 13.442-5.58 2.376-10.11 8.086-7.65 15.505 1.27 3.814 4.19 8.545 15.01 5.711 18.82-4.96 34.39-12.234 47.64-22.279 5.67-4.293 8.42-7.836 5.58-13.151-1.97-3.709-5.73-4.418-11.17-4.272ZM2417.95 402.891c-22.86-21.841-47.52-42.306-71.36-62.084-49.89-41.41-101.49-84.217-139.4-142.071-33.41-50.976-58.98-98.284-33.22-160.785 6.61-16.068 16.05-28.49 24.17-37.889h-5.46c-7.77 9.295-16.36 21.216-22.57 36.305-26.53 64.397-.48 112.664 33.6 164.662 38.26 58.374 90.09 101.389 140.24 142.987 23.78 19.736 48.37 40.139 71.15 61.897 26.23 25.071 57.37 37.409 94.67 37.409 4.55 0 9.2-.208 13.93-.563v-4.168c-42.94 3.48-76.72-7.961-105.73-35.679l-.02-.021ZM1367.04 882.767c-7.86 0-16.46-1.25-25.86-3.772-5.8-1.542-11.57-3.126-17.36-4.689-46.1-12.546-93.76-25.509-142.82-22.654-11.86.688-23.87 2.272-35.45 3.814-11.53 1.522-23.45 3.105-35.35 3.814-78.57 4.752-128.71-44.224-167.411-92.741-17.236-21.612-32.949-45.057-48.163-67.753-20.049-29.885-40.764-60.813-65.085-87.676-27.052-29.886-56.854-57.249-88.573-81.341-50.726-38.493-69.712-83.905-54.915-131.296 7.086-22.675 19.236-37.951 37.18-46.704 63.355-30.907 123.835-70.296 182.293-108.392 26.113-17.006 53.122-34.616 80.048-51.226 64.666-39.91 123.086-63.773 164.476-67.191h.17c62.31.021 126.46 26.176 180.64 73.63 52.17 45.683 87.8 105.641 97.79 164.475 7.94 46.724 18.73 87.655 32.99 125.106 12.23 32.094 15.44 62.668 9.79 93.428-5.17 28.156-9.61 56.979-13.9 84.864-8.08 52.476-16.46 106.766-30.01 158.93-6.5 24.988-16.94 41.39-31.93 50.143-8.23 4.793-17.69 7.19-28.53 7.19l-.02.041Zm-172.06-35.679c44.7 0 87.97 11.775 129.94 23.196 5.78 1.563 11.55 3.147 17.34 4.689 21.26 5.669 38.02 4.689 51.23-3.001 13.98-8.149 23.8-23.717 30.01-47.579 13.5-51.977 21.86-106.142 29.93-158.535 4.29-27.905 8.75-56.77 13.92-84.967 5.5-29.99 2.37-59.813-9.59-91.199-14.38-37.7-25.24-78.882-33.22-125.877-21.19-124.898-149.34-234.52-274.24-234.645-40.74 3.376-98.47 27.03-162.558 66.565-26.885 16.589-53.873 34.179-79.966 51.164-58.583 38.159-119.146 77.631-182.751 108.642-16.839 8.211-28.302 22.675-35.012 44.203-14.235 45.579 4.251 89.406 53.456 126.753 31.928 24.237 61.917 51.789 89.135 81.862 24.53 27.093 45.329 58.145 65.461 88.156 15.151 22.612 30.844 45.995 47.954 67.461 36.325 45.537 82.841 91.49 153.721 91.49 3.33 0 6.73-.104 10.17-.312 11.75-.709 23.61-2.272 35.05-3.793 11.67-1.543 23.74-3.147 35.77-3.835 4.75-.271 9.5-.417 14.23-.417l.02-.021ZM1606.98.063c6.36 2.396 12.82 3.605 19.49 3.605 6.66 0 13.52-1.209 20.61-3.606h-40.1ZM823.893 1029.24l-7.503-7.84c-45.245-47.392-66.419-112.374-85.113-169.685-29.031-89.031-76.465-146.156-145.051-174.666-35.346-14.692-62.314-40.576-84.05-63.959-28.073-30.219-44.141-68.941-59.688-106.371l-3.022-7.253c-19.111-45.828-50.913-73.859-97.221-85.655-69.629-17.756-119.459-48.704-156.826-97.43-8.461-11.045-18.131-21.194-27.489-31.01-8.378-8.795-17.027-17.882-24.738-27.531-29.885-37.388-69.65-66.127-121.584-87.822a209.996 209.996 0 0 0-11.566-4.439v4.418a199.131 199.131 0 0 1 9.961 3.855c51.29 21.425 90.511 49.747 119.938 86.593 7.815 9.795 16.548 18.944 24.988 27.802 9.274 9.732 18.882 19.798 27.197 30.677 37.951 49.496 88.51 80.945 159.098 98.93 45.599 11.63 75.588 38.076 94.408 83.238l3.021 7.253c15.693 37.784 31.907 76.839 60.48 107.6 22.029 23.716 49.413 49.996 85.509 64.981 67.399 28.01 114.082 84.3 142.696 172.102 18.819 57.749 40.16 123.189 86.051 171.272l7.503 7.83c11.795 12.34 23.945 25.05 35.72 37.87h5.648c-12.608-13.8-25.675-27.49-38.347-40.74l-.02-.02Z"/>
    <path fill="#544A4A"
          d="M1869.95 1036.24c-1.05 0-2.07 0-3.11-.04-56.71-1.3-86.09-31.93-89.84-93.64-.54-8.878-.42-17.819-.27-27.281.06-4.522.14-9.19.14-14.046-2.94-54.624 10.05-92.825 40.87-120.23 22.32-19.861 49.27-23.341 75.32-26.718 4.27-.542 8.5-1.104 12.73-1.729 44.5-6.544 96.7-9.754 146.62 16.005 40.05 20.674 51.74 54.04 33.8 96.534-15.59 36.909-47.6 79.653-83.55 111.56-30.8 27.325-78.59 59.545-132.69 59.565l-.02.02Zm91.03-284.101c-18.95 0-37.35 2.021-54.58 4.564-4.23.625-8.51 1.167-12.8 1.73-25.43 3.292-51.73 6.689-73.09 25.696-29.8 26.509-42.35 63.668-39.47 116.937v.104c0 4.898-.06 9.608-.15 14.172-.14 9.378-.27 18.235.25 26.968 3.61 59.15 31.66 88.49 85.78 89.72 1 .02 2.03.04 3.03.04 52.81 0 99.68-31.66 129.94-58.499 35.51-31.512 67.13-73.693 82.48-110.081 16.97-40.16 5.94-71.712-31.86-91.219-29.66-15.297-60.25-20.153-89.51-20.153l-.02.021ZM2426.02 365.92c-32.16-32.303-66.26-63.022-99.23-92.741a7318.63 7318.63 0 0 1-18.73-16.902c-28.55-25.842-52.65-58.979-71.59-98.492-30.61-63.856-27.32-99.577 13.48-146.99 3.26-3.75 6.51-7.356 9.74-10.753h-5.71c-2.4 2.584-4.8 5.272-7.17 8.044-41.64 48.371-45.21 86.593-14.09 151.491 19.17 40.014 43.6 73.588 72.55 99.785 6.25 5.648 12.5 11.275 18.73 16.922 32.93 29.677 66.96 60.355 99.06 92.574 23.38 23.488 50.14 35.284 79.86 35.284 6.75 0 13.67-.626 20.73-1.855v-4.231c-37.01 6.607-69.81-4.189-97.65-32.136h.02ZM1323.23 833.396c-5.35 0-10.96-.292-16.81-.875l-19.72-1.959c-38.03-3.752-77.38-7.649-116-12.234-15.61-1.855-28.05-5.273-38.09-10.42-68.65-35.304-123.84-64.565-173.712-92.116-20.069-11.087-33.595-30.177-46.662-48.642-6.314-8.92-12.838-18.152-19.986-26.259-13.567-15.401-27.76-30.677-41.494-45.433-30.26-32.532-61.542-66.169-88.218-103.723-24.279-34.2-23.425-64.19 2.522-86.76 15.526-13.505 31.219-27.489 46.37-40.994 85.613-76.318 174.124-155.221 284.6-193.13 59.06-20.278 129.65-11.316 188.8 23.946 59.1 35.242 98.93 91.115 109.28 153.283 16.38 98.43 28.33 186.044 36.5 267.823v.188c.37 45.912-7.72 91.302-15.32 130.254-11.65 59.625-40.33 87.051-92.06 87.051Zm-161.32-669.047c-22.26 0-44.1 3.439-64.53 10.462-109.68 37.638-197.877 116.27-283.178 192.297-15.172 13.525-30.865 27.509-46.412 41.035-24.425 21.236-25.051 48.558-1.855 81.195 26.509 37.325 57.708 70.858 87.885 103.286 13.755 14.776 27.968 30.052 41.556 45.516 7.294 8.295 13.901 17.61 20.278 26.613 12.796 18.069 26.03 36.763 45.266 47.392 49.83 27.531 105 56.77 173.6 92.053 9.59 4.919 21.57 8.191 36.68 9.983 38.58 4.585 77.9 8.482 115.92 12.233l19.71 1.959c60.65 6.023 91.85-18.735 104.37-82.82 7.57-38.722 15.61-83.821 15.26-129.317-8.17-81.653-20.09-169.142-36.45-267.447-10.15-60.959-49.27-115.791-107.31-150.407-37.62-22.425-79.92-34.033-120.79-34.033ZM795.154 1047.37c-33.512-33.14-58.041-77.072-75.006-134.3-1.438-4.814-2.834-9.649-4.251-14.484-4.293-14.735-8.732-29.969-13.755-44.704-22.32-65.439-57.02-108.871-106.079-132.754a2231.387 2231.387 0 0 0-12.337-5.961c-22.779-10.962-46.308-22.32-67.816-36.388-54.04-35.387-81.341-92.72-109.017-158.493-15.214-36.158-40.431-62.417-74.901-78.048-80.383-36.408-138.737-78.944-183.648-133.88-27.947-34.2-56.061-66.628-92.7-87.781-22.57-13.025-40.16-21.695-55.581-27.322v4.439c14.86 5.565 31.844 14.005 53.498 26.489 36.033 20.778 63.876 52.914 91.553 86.801 45.328 55.457 104.161 98.368 185.148 135.047 33.491 15.172 57.978 40.702 72.796 75.86 27.947 66.419 55.561 124.314 110.58 160.348 21.716 14.234 45.391 25.634 68.295 36.659 4.106 1.98 8.211 3.959 12.317 5.96 48.017 23.362 82.008 66.002 103.953 130.337 5.002 14.651 9.42 29.844 13.713 44.537 1.417 4.835 2.814 9.67 4.252 14.505 17.172 57.937 42.056 102.453 76.089 136.093 6.94 6.85 13.109 13.31 18.756 19.65h5.544c-6.377-7.3-13.38-14.69-21.382-22.61h-.021Z"/>
    <path fill="#544A4A"
          d="M1881.87 1004.04c-21.68 0-40.54-7.045-54.21-20.466-17.42-17.131-24.9-42.64-21.09-71.859.06-72.296 29.09-107.433 97.1-117.457 34.45-5.085 62.54-3.126 88.4 6.127 30.99 11.087 44.37 36.096 37.68 70.399-10.73 55.124-79.71 124.231-131.81 132.046-5.51.83-10.88 1.23-16.09 1.23l.02-.02Zm56.98-208.428c-10.74 0-22.14.917-34.56 2.751-66.42 9.795-93.53 42.682-93.55 113.478v.27c-3.71 27.948 3.33 52.269 19.84 68.483 16 15.714 39.7 22.156 66.77 18.089 50.71-7.606 117.9-74.963 128.34-128.711 6.33-32.512-5.77-55.207-34.99-65.669-16.28-5.815-33.01-8.691-51.85-8.691ZM2523.68 346.142c-7.24 1.709-15.13 2.459-24.03 2.272-29.47 2.251-53.06-18.027-72.88-37.263-10.4-10.087-21.36-19.945-31.95-29.448-35.24-31.657-71.67-64.377-93.24-111.539-5.25-11.463-9.13-22.654-11.53-33.22-7.71-33.887.59-66.628 21.64-85.488 11.31-10.129 25.42-15.318 40.63-15.318 7.97 0 16.22 1.417 24.53 4.314 59.21 20.59 107.35 48.017 146.83 83.633v-5.543c-39.37-34.804-87.08-61.71-145.45-82.008-25.66-8.92-50.94-4.606-69.32 11.837-22.19 19.861-30.97 54.144-22.92 89.511 2.48 10.858 6.44 22.299 11.79 34.032 21.93 47.955 58.69 80.987 94.25 112.915 10.56 9.482 21.48 19.298 31.84 29.344 19.38 18.819 42.33 38.638 71 38.638 1.61 0 3.23-.062 4.88-.187 8.73.208 16.61-.542 23.91-2.189v-4.251l.02-.042ZM1294.83 798.801c-3.69 0-7.44-.208-11.23-.646-60.21-6.94-122.46-14.13-175.05-57.937-16.25-13.547-37.97-24.8-66.35-34.45-90.096-30.573-147.574-108.954-198.3-178.104-37.326-50.893-34.554-85.655 10.983-137.819 45.286-51.872 95.616-105.453 156.717-145.884 116.21-76.881 220.75-68.691 310.72 24.362 35.05 36.263 42.78 84.593 45.72 127.107v.376c-1.19 10.17-2.15 20.34-3.1 30.177-2.19 22.799-4.26 44.328-8.63 65.669-5.55 27.093-.5 50.934 8.79 78.402 15.18 44.849 24.8 83.279 22.62 125.127-1.86 34.971-15.18 64.627-37.5 83.488-15.69 13.255-34.66 20.111-55.37 20.111l-.02.021Zm-133.13-602.69c-46.73 0-96.08 17.089-147.78 51.309-60.711 40.16-110.791 93.512-155.89 145.155-44.433 50.914-47.059 83.134-10.775 132.63 50.351 68.67 107.413 146.489 196.275 176.624 28.89 9.796 51.04 21.32 67.69 35.179 51.62 42.995 113.25 50.122 172.85 57 23.91 2.771 45.85-3.648 63.44-18.507 21.45-18.131 34.24-46.725 36.04-80.528 2.16-41.181-7.38-79.194-22.39-123.585-8.23-24.321-15-50.914-8.92-80.57 4.34-21.132 6.38-42.557 8.57-65.231.94-9.795 1.92-19.924 3.08-30.073-2.89-41.702-10.48-89.052-44.53-124.294-48.39-50.038-101.1-75.089-157.64-75.089l-.02-.02ZM673.027 881.621c-14.922-65.294-50.997-109.976-107.183-132.796-26.968-10.942-55.457-22.946-81.466-38.66-44.307-26.738-77.923-69.899-99.91-128.232-22.779-60.438-58.625-104.516-109.58-134.776-58.958-34.992-106.85-83.676-141.987-122.168-29.157-31.949-57.25-56.833-85.843-76.11-15.068-10.15-30.844-17.277-47.016-21.362v4.272c15.338 4.002 30.343 10.879 44.682 20.549 28.322 19.09 56.165 43.766 85.092 75.464 35.325 38.701 83.509 87.656 142.925 122.939 50.122 29.761 85.384 73.151 107.809 132.651 22.341 59.25 56.54 103.098 101.66 130.337 26.26 15.86 54.936 27.927 82.05 38.951 54.873 22.279 90.094 65.982 104.703 129.858 18.048 78.965 39.347 137.002 68.795 187.442h4.835c-29.885-50.52-51.372-108.727-69.587-188.359h.021Z"/>
    <path fill="#544A4A"
          d="M1886.62 950.604c-9.46 0-16.96-2.563-22.3-7.649-7.21-6.877-10.55-18.006-10.17-34.032.38-16.527 8.23-33.512 21.01-45.433 11.06-10.295 24.38-15.589 37.66-14.964 26.48 1.293 40.59 15.589 40.8 41.348.13 15.777-6.1 30.74-17.52 42.14-11.95 11.921-27.93 18.465-45.06 18.465h-.52c-1.34.083-2.63.146-3.9.146v-.021Zm24.05-97.972c-11.46 0-22.99 4.898-32.66 13.901-11.98 11.17-19.34 27.051-19.69 42.473-.34 14.588 2.67 24.988 8.9 30.907 5.25 5.022 12.81 7.106 23.11 6.377h.73c16.03 0 30.97-6.106 42.12-17.256 10.63-10.608 16.42-24.53 16.32-39.16-.19-23.508-12.59-36.033-36.85-37.221-.65-.042-1.31-.042-1.96-.042l-.02.021ZM2523.68 285.079c-15.36 13.443-35.83 13.568-59.88.146-36.55-20.403-67.11-50.684-90.76-89.969-9.32-15.464-10.46-28.489-3.59-40.993 7.24-13.172 17.76-19.111 34.45-19.111 2.51 0 5.15.125 7.92.396 45.77 2.98 83.37 22.195 111.86 57.041v-6.482c-28.85-33.345-66.34-51.768-111.52-54.706-15.42-1.438-34.66-.396-46.35 20.861-7.57 13.755-6.36 28.51 3.67 45.162 24.05 39.909 55.1 70.691 92.3 91.469 12.75 7.128 24.59 10.671 35.3 10.671 9.86 0 18.78-3.022 26.6-8.983v-5.502ZM1265.94 761.35c-13.71 0-27.4-1.48-40.99-4.439-29.78-6.481-58.23-20.361-84.55-41.285-30.3-24.092-64-42.494-100.14-54.728-73.151-24.759-121.563-84.238-155.555-133.297-24.592-35.47-24.592-74.046 0-111.58 58.646-89.511 127.175-149.469 209.495-183.315 22.32-9.19 44.72-10.045 65.6-9.607 78.01.688 133.65 37.117 165.35 108.288 15.47 34.7 15.13 76.047-.94 116.457-23.67 59.563-19.48 115.77 13.61 182.273 16.38 32.928 18.15 68.524 4.71 95.22-9.02 17.944-24.19 29.657-42.7 32.97a191.39 191.39 0 0 1-33.89 3.022v.021Zm-114.12-534.166c-18.13 0-37.2 1.625-56.06 9.378-81.51 33.533-149.429 92.97-207.595 181.751-23.571 35.992-23.592 72.963-.063 106.913 33.637 48.517 81.487 107.35 153.468 131.712 36.6 12.38 70.72 31.032 101.39 55.416 25.82 20.528 53.69 34.137 82.84 40.472 24.26 5.273 48.9 5.731 73.28 1.376 17.17-3.064 31.28-13.984 39.7-30.74 12.84-25.53 11.09-59.73-4.73-91.491-33.68-67.648-37.91-124.918-13.75-185.669 15.65-39.347 16-79.549 1-113.227-30.99-69.545-85.37-105.162-161.6-105.829h-.02a331.65 331.65 0 0 0-7.88-.083l.02.021ZM662.816 997.787c-5.565-21.862-10.837-42.515-13.234-63.98-9.295-82.946-49.33-136.132-122.376-162.578-90.532-32.762-149.428-87.156-180.063-166.309-27.197-70.253-68.858-124.606-127.337-166.141-10.128-7.211-19.569-16.11-27.905-23.946-14.422-13.609-28.948-27.655-42.995-41.244-28.426-27.488-57.811-55.915-87.947-82.216-18.694-16.297-39.576-27.155-60.938-31.719v4.272c20.361 4.543 40.306 14.984 58.208 30.594 30.052 26.218 59.396 54.603 87.781 82.07 14.046 13.589 28.572 27.656 43.015 41.265 8.419 7.94 17.964 16.943 28.343 24.321 57.791 41.056 98.972 94.783 125.857 164.245 31.094 80.32 90.802 135.506 182.522 168.705 71.4 25.842 110.539 77.902 119.646 159.118 2.438 21.758 7.732 42.536 13.338 64.544 5.71 22.442 11.608 45.642 14.713 71.152h4.169c-3.106-25.97-9.066-49.46-14.839-72.194l.042.041Z"/>
    <path fill="#544A4A"
          d="M1244.98 714.062c-21.78 0-41.35-7.065-55.54-20.153-49.17-45.349-106.37-67.336-166.94-90.615l-1.96-.75c-36.841-14.151-67.665-41.473-94.216-83.508-20.153-31.907-18.527-66.649 4.835-103.266 61.668-96.7 129.151-148.468 212.411-162.932 33.53-5.814 72.21 4.419 103.43 27.385 29.74 21.883 48.52 52.289 52.87 85.634 3.96 30.365-2.1 61.334-18.03 92.053-26.34 50.789-27.07 101.244-2.27 154.221 4.75 10.128 7.94 21.278 11.03 32.053l1.48 5.106c6.12 21.07 5 37.471-3.32 48.725-7.58 10.274-20.69 15.631-38.99 15.922-1.6.084-3.21.105-4.79.105v.02Zm-82.32-458.681c-6.26 0-12.38.5-18.36 1.542-82.03 14.255-148.639 65.419-209.619 161.056-22.403 35.159-24.029 68.399-4.814 98.806 26.051 41.244 56.208 68.024 92.183 81.841l1.95.75c58.27 22.383 118.53 45.537 168.27 91.428 14.4 13.276 34.76 20.007 57.33 18.944h.07c16.94-.271 28.97-5.064 35.74-14.234 7.5-10.17 8.4-25.342 2.67-45.099l-1.48-5.127c-3.05-10.608-6.19-21.591-10.8-31.427-25.38-54.249-24.61-105.913 2.36-157.91 15.52-29.948 21.44-60.104 17.59-89.594-4.21-32.199-22.41-61.605-51.23-82.82-24.74-18.215-54.25-28.198-81.88-28.198l.02.042ZM624.302 1036.22c-2.814-46.561-11.358-91.847-18.507-126.089-8.065-38.659-29.135-67.252-64.418-87.426-35.367-20.215-72.838-40.889-114.561-63.189-51.997-27.78-91.24-70.129-119.959-129.462-6.189-12.796-11.712-26.384-17.026-39.514-11.9-29.302-24.196-59.604-44.975-83.758C186.023 438.404 120 377.987 63.146 327.907 42.89 310.046 21.258 298.813.043 295.02v4.252c20.236 3.793 40.91 14.63 60.354 31.761 56.728 49.996 122.647 110.288 181.293 178.479 20.34 23.654 32.511 53.623 44.286 82.612 5.356 13.192 10.9 26.843 17.152 39.764 29.114 60.146 68.941 103.12 121.73 131.338 41.681 22.278 79.132 42.931 114.457 63.126 34.199 19.549 54.602 47.246 62.397 84.655 7.106 34.095 15.63 79.194 18.423 125.483.75 12.27-.063 23.53-2.376 33.51h4.272c2.23-10.13 3.001-21.47 2.272-33.76v-.02ZM215.242 1044.7c-23.758.5-42.077 13.44-55.394 24.65-.25.21-.5.42-.771.63h6.544c13.046-10.57 29.051-20.68 49.705-21.11 63.584-1.36 115.248 5.4 161.285 21.11h12.338c-49.267-18.7-104.516-26.74-173.707-25.28Z"/>
    <path fill="#544A4A"
          d="M1086.4 536.834c-25.38 0-50.64-7.336-73.55-21.404-27.421-16.86-37.467-48.329-25.587-80.194 29.047-77.903 110.867-141.717 178.477-139.362 31.33 1.105 56.73 14.756 71.55 38.472 16.21 25.988 16.94 60.125 1.98 93.658-37.56 84.155-69.88 108.559-144.01 108.559h-.25c-2.88.187-5.75.292-8.61.292v-.021Zm75.86-236.854c-30.43 0-65.81 14.088-97.7 39.035-33.14 25.925-59.9 61.521-73.38 97.68-11.149 29.906-1.792 59.416 23.86 75.193 24.78 15.234 52.35 22.341 79.78 20.507h.48c72.88 0 103.06-22.862 140.17-106.079 14.41-32.261 13.78-64.981-1.7-89.761-14.05-22.487-38.25-35.47-68.15-36.512a88.86 88.86 0 0 0-3.36-.063ZM557.32 931.806c-10.9-34.2-31.073-62.314-56.77-79.174-54.144-35.533-106.954-63.063-161.452-84.175-81.508-31.553-122.668-93.825-125.857-190.358-.938-28.365-8.357-52.019-21.445-68.42-37.179-46.558-87.843-105.558-150.052-148.969-13.588-9.483-27.593-14.526-41.702-15.005v4.189c13.254.5 26.446 5.252 39.305 14.234 61.772 43.098 112.185 101.827 149.198 148.156 12.525 15.693 19.632 38.493 20.549 65.96 3.251 98.389 45.287 161.87 128.524 194.089 54.207 20.987 106.767 48.392 160.681 83.78 51.268 33.636 76.736 113.789 55.603 174.977-6.044 17.49-16.214 26.24-31.115 26.74l-3.334.12c-16.277.59-33.095 1.17-48.455-6.41-48.871-24.18-99.743-35.62-161.098-45.33-41.494-6.589-79.799-25.408-117.103-57.565-16.173-13.921-30.011-20.778-42.119-20.778-1.98 0-3.898.188-5.773.542-11.338 2.188-20.737 10.691-28.698 26.009C88.864 1007 52.31 1010.67 2.23 999.517c-.709-.167-1.417-.333-2.147-.5v4.273c.417.08.813.19 1.23.29 52.018 11.57 90.01 7.71 118.583-47.245 7.336-14.13 15.776-21.924 25.78-23.841 12.129-2.335 26.634 3.98 44.411 19.298 37.93 32.678 76.902 51.828 119.167 58.518 60.98 9.67 111.497 21.01 159.889 44.96 12.005 5.94 24.571 7.16 37.055 7.16 4.481 0 8.961-.16 13.401-.31l3.313-.12c16.589-.57 28.343-10.49 34.929-29.53 10.587-30.7 10.42-66.444-.479-100.643l-.042-.021Z"/>
    <path fill="#544A4A"
          d="m1128.85 441.988-.95-.271c-13.59-3.897-30.47-8.732-33.91-30.406-1.71-10.858 7.52-24.863 16.75-34.325 9.84-10.107 24.64-20.298 36.68-18.756 22.18 2.897 33.85 13.963 34.7 32.845.44 9.586-4.52 20.736-13.59 30.573-11.12 12.067-26.21 19.861-39.34 20.319h-.34v.021Zm16.11-79.736c-8.6 0-20.57 6.711-31.22 17.631-10.71 11.004-16.83 23.071-15.63 30.782 3.01 19.048 17.84 23.3 30.93 27.051l.31.083c11.99-.542 25.8-7.794 36.12-18.965 8.34-9.024 12.88-19.069 12.51-27.551-.78-16.798-10.93-26.259-31.08-28.906-.62-.083-1.27-.125-1.94-.125ZM81.382 809.054c-4.793-24.342-19.944-44.411-44.994-59.625-4.877-2.959-9.629-6.544-14.214-9.983-5.918-4.459-12.025-9.065-18.61-12.525a186.028 186.028 0 0 0-3.522-1.792v4.668c.52.271 1.062.542 1.583.813 6.273 3.314 12.255 7.815 18.048 12.15 4.669 3.522 9.504 7.148 14.547 10.233 24.009 14.588 38.514 33.72 43.078 56.874 5.522 27.968-4.252 61.542-26.78 92.074-17.194 23.32-33.47 37.159-50.476 42.744v4.356c18.34-5.606 35.658-20.007 53.83-44.62 23.217-31.469 33.242-66.232 27.51-95.346v-.021ZM116.061 520.974c-22.904-43.744-46.745-74.38-75.026-96.429-8.044-6.273-16.86-9.545-28.593-10.65a58.545 58.545 0 0 0-12.4.146v4.252a53.463 53.463 0 0 1 12.004-.251c10.878 1.001 19.027 4.023 26.426 9.775 27.78 21.653 51.268 51.872 73.901 95.075 12.275 23.445 4.793 44.682-20.529 58.228-21.007 11.254-43.327 11.254-70.545 10.066-1.459.084-2.918.167-4.397.271-5.565.334-11.254.688-16.86.605v4.147c.479 0 .958.042 1.438.042 5.251 0 10.524-.334 15.672-.646 1.458-.084 2.917-.188 4.168-.25 27.635 1.208 50.538 1.187 72.483-10.546 27.239-14.567 35.555-38.43 22.237-63.835h.021ZM372.672 970.736c-19.882 0-41.389-2.334-61.938-11.525-22.8-10.212-46.725-24.238-41.848-61.813 3.063-23.571 31.803-52.269 55.915-55.812 52.81-7.773 98.118 10.608 138.465 56.208 13.026 14.734 16.048 32.24 9.212 53.539-6.211 19.34-23.362 19.111-37.159 18.924-8.607-.126-17.027-.105-27.697-.063-5.21 0-10.9.021-17.256.021-5.69.312-11.608.521-17.673.521h-.021Zm-24.988-126.711c-7.273 0-14.713.563-22.299 1.667-22.154 3.272-49.58 30.615-52.394 52.227-4.501 34.72 17.986 47.871 39.431 57.478 26.009 11.65 53.894 11.9 77.735 10.629h.105c6.398 0 12.087 0 17.297-.042 10.692-.021 19.132-.062 27.781.063 13.692.187 27.864.396 33.137-16.027 6.335-19.777 3.605-35.971-8.378-49.517-33.512-37.888-70.483-56.52-112.436-56.52l.021.042Z"/>
  </mask>
  <g mask="url(#a)">
    <path fill="#E7E7E7" d="m2133 950-959.37 99.93c-.42.04-.84.04-1.25 0L213 950V20h1920v930Z"/>
  </g>
</svg>
