<svg xmlns="http://www.w3.org/2000/svg" viewBox="0 0 375 194" fill="none">
    <g clip-path="url(#a)">
        <path fill="url(#b)"
              d="M127.545 191.464s-.015-.066 0-.095l6.003-15.255c.088-.227.265-.345.529-.36.11 0 .221.015.316.052.169.066.272.169.309.308l5.981 15.233s.015.066 0 .095l-.559 1.33c-.044.103-.191.103-.227 0l-1.962-5.276h-7.569l-2.035 5.283c-.037.103-.184.103-.228 0l-.558-1.315Zm9.934-5.107-3.593-9.207-.073.052.242.676-3.277 8.487h6.701v-.008Z"/>
        <path fill="url(#c)"
              d="M158.516 176.57a.55.55 0 0 1 .184-.433.636.636 0 0 1 .448-.169h7.422c.999 0 1.881.227 2.659.683.618.36 1.139.874 1.507 1.477.485.793.727 1.712.727 2.755 0 1.514-.448 2.719-1.337 3.63s-2.08 1.36-3.556 1.36h-6.819v5.804s-.015.059-.03.081l-.984 1.058c-.074.081-.213.03-.213-.081v-16.172l-.008.007Zm8.054 8.193c1.094 0 1.976-.353 2.652-1.058.676-.706 1.014-1.646 1.014-2.822 0-1.175-.338-2.042-1.021-2.748-.684-.705-1.565-1.058-2.638-1.058h-6.819v7.686h6.819-.007Z"/>
        <path fill="url(#d)"
              d="m189.686 177.04.985-1.058c.073-.081.213-.029.213.081v15.614s-.015.059-.03.081l-.984 1.058c-.074.081-.213.03-.213-.081v-15.614s.014-.059.029-.081Z"/>
        <path fill="url(#e)"
              d="M214.772 177.077h-6.136c-.11 0-.161-.132-.088-.213l.882-.86s.051-.036.088-.036h12.616c.111 0 .162.132.088.213l-.881.859s-.052.037-.088.037h-5.254v14.608s-.015.058-.03.081l-.984 1.058c-.074.08-.213.029-.213-.081v-15.666Z"/>
        <path fill="url(#f)"
              d="M236.36 191.464s-.015-.066 0-.095l6.003-15.255c.088-.227.265-.345.529-.36.11 0 .221.015.316.052.169.066.272.169.309.308l5.981 15.233s.015.066 0 .095l-.559 1.33c-.044.103-.191.103-.227 0l-1.962-5.276h-7.569l-2.035 5.283c-.037.103-.184.103-.228 0l-.558-1.315Zm9.934-5.107-3.593-9.207-.073.052.242.676-3.277 8.487h6.701v-.008Z"/>
        <path fill="url(#g)"
              d="M267.515 192.669a.55.55 0 0 1-.184-.411v-15.137s.015-.059.03-.081l.984-1.058c.074-.081.213-.029.213.081v15.666h8.289s.059.014.081.036l.918.86c.081.074.029.213-.081.213h-9.809a.651.651 0 0 1-.448-.169h.007Z"/>
        <path fill="url(#h)"
              d="M108.374 189.855c-.455.661-1.095 1.176-1.918 1.543-.823.368-1.748.551-2.792.551-1.043 0-1.947-.184-2.763-.544-.808-.36-1.44-.867-1.888-1.521a3.848 3.848 0 0 1-.676-2.226v-6.51c0-.838.228-1.58.676-2.227.448-.654 1.08-1.153 1.888-1.521.809-.36 1.734-.543 2.763-.543s1.977.183 2.792.551c.823.367 1.455.881 1.918 1.543.426.61.654 1.308.684 2.087 0 .088.095.139.176.102l.911-.396a.13.13 0 0 0 .073-.118 4.238 4.238 0 0 0-.83-2.498c-.551-.757-1.33-1.345-2.329-1.756-.999-.419-2.131-.625-3.395-.625-1.264 0-2.403.228-3.395.683-.999.456-1.77 1.095-2.329 1.918-.551.823-.83 1.749-.83 2.792v6.511c0 1.043.279 1.976.83 2.792.551.823 1.33 1.455 2.329 1.918 1 .455 2.131.683 3.395.683 1.264 0 2.403-.206 3.395-.625.999-.418 1.771-1.006 2.329-1.756a4.236 4.236 0 0 0 .83-2.498.133.133 0 0 0-.073-.118l-.911-.396a.126.126 0 0 0-.176.103 3.847 3.847 0 0 1-.684 2.086v.015Z"/>
        <path fill="#242E63"
              d="M189.936 152.256c-6.944 0-13.315-2.741-17.944-7.716-4.526-4.864-7.017-11.44-7.017-18.516v-21.89a2.606 2.606 0 0 1 2.601-2.601h4.688c.169 0 .441.132.529.235v24.263c0 5.122 1.742 9.846 4.901 13.314 3.13 3.432 7.135 5.1 12.242 5.1 5.107 0 9.111-1.668 12.241-5.1 3.16-3.468 4.901-8.192 4.901-13.314v-21.889c0-1.463 1.595-2.601 2.962-2.601h4.688c.095 0 .169.073.169.169v24.321c0 7.076-2.491 13.653-7.018 18.517-4.629 4.974-10.999 7.715-17.943 7.715v-.007ZM255.42 152.256a.171.171 0 0 1-.147-.081c-2.366-4.078-5.048-7.884-7.759-11.007a52.947 52.947 0 0 0-4.431-4.549c-2.329-2.116-4.769-3.938-7.245-5.393a37.694 37.694 0 0 0-4.423-2.212l-1-.419v23.506c0 .089-.08.169-.169.169h-7.325a.166.166 0 0 1-.169-.169v-32.103c0-.095.073-.169.169-.169h.896c.367.015 3.703.096 8.516 1.815a41.57 41.57 0 0 1 6.79 3.16 49.678 49.678 0 0 1 6.436 4.453 55.99 55.99 0 0 1 3.138 2.755l1.22 1.147v-3.799c0-.089.066-.162.161-.169 6.68-.302 9.648-5.519 9.582-10.243-.037-2.579-.94-4.99-2.542-6.775-1.808-2.021-4.372-3.116-7.414-3.167h-16.518a2.606 2.606 0 0 1-2.602-2.601v-4.688c0-.096.074-.169.169-.169h19.076c4.834 0 9.023 1.683 12.124 4.864 2.77 2.844 4.526 6.76 4.937 11.015.412 4.261-.565 8.45-2.74 11.793-2.278 3.498-5.769 5.893-10.089 6.922l-1.139.272.749.896c3.498 4.174 6.863 9.266 9.736 14.725a.17.17 0 0 1 0 .169.159.159 0 0 1-.147.081h-7.84v-.029ZM307.208 152.256a.171.171 0 0 1-.147-.081c-2.366-4.078-5.048-7.884-7.759-11.007a52.947 52.947 0 0 0-4.431-4.549c-2.329-2.123-4.769-3.938-7.245-5.393a37.694 37.694 0 0 0-4.423-2.212l-1-.419v23.506a.166.166 0 0 1-.169.169h-7.325a.166.166 0 0 1-.169-.169v-32.103c0-.095.073-.169.169-.169h.896c.367.015 3.703.096 8.516 1.815a41.846 41.846 0 0 1 6.79 3.16 48.898 48.898 0 0 1 6.436 4.453 53.608 53.608 0 0 1 3.138 2.755l1.22 1.147v-3.799c0-.089.066-.162.161-.169 6.68-.302 9.648-5.519 9.582-10.243-.037-2.579-.941-4.99-2.542-6.775-1.808-2.021-4.372-3.116-7.414-3.167h-16.518a2.606 2.606 0 0 1-2.602-2.601v-4.688c0-.096.074-.169.169-.169h19.076c4.834 0 9.023 1.683 12.124 4.864 2.77 2.844 4.526 6.76 4.937 11.015.412 4.261-.565 8.45-2.74 11.793-2.278 3.498-5.769 5.893-10.089 6.922l-1.139.272.749.896c3.498 4.174 6.863 9.266 9.736 14.725a.17.17 0 0 1 0 .169c-.029.059-.08.081-.147.081h-7.84v-.029ZM63.096 152.256a.165.165 0 0 1-.161-.118l-2.388-7.406c-.022-.059 0-.125.044-.169l35.402-35.564H63.03a.157.157 0 0 1-.132-.066.155.155 0 0 1-.03-.147l.941-3.608a4.875 4.875 0 0 1 4.718-3.645h35.122c.074 0 .14.044.162.118l2.388 7.406c.022.059 0 .125-.044.169L70.753 144.79h33.602c.051 0 .103.022.132.066a.156.156 0 0 1 .03.147l-.941 3.616a4.874 4.874 0 0 1-4.717 3.644H63.096v-.007ZM114.385 152.256a.165.165 0 0 1-.162-.118l-2.388-7.406c-.022-.059 0-.125.044-.169l35.402-35.564h-32.962a.159.159 0 0 1-.133-.066.156.156 0 0 1-.029-.147l.94-3.608a4.876 4.876 0 0 1 4.718-3.645h35.123c.073 0 .139.044.161.118l2.389 7.406c.022.059 0 .125-.045.169l-35.402 35.564h33.602c.052 0 .103.022.132.066.03.045.045.096.03.147l-.941 3.608a4.874 4.874 0 0 1-4.717 3.645h-35.762ZM367.711 152.256a.166.166 0 0 1-.169-.169v-1.014c0-8.502-1.029-16.195-3.05-22.882-1.594-5.261-3.806-9.912-6.569-13.806-2.527-3.564-5.092-5.849-6.796-7.143l-.728-.551-19.641 44.022a2.613 2.613 0 0 1-2.373 1.543h-6.18a.193.193 0 0 1-.176-.272l20.765-46.578a.179.179 0 0 1 .154-.103h4.63l2.998-6.724c.036-.073.102-.14.154-.147h.015c.036 0 .058 0 .08.015l.934.434c.639.293 6.392 3.093 11.991 10.823 3.3 4.556 5.923 9.949 7.789 16.018 2.293 7.459 3.461 15.982 3.461 25.343v1.014a.166.166 0 0 1-.169.169h-7.12v.008ZM45.697 152.256a.167.167 0 0 1-.17-.169v-1.014c0-8.502-1.028-16.195-3.049-22.882-1.594-5.268-3.806-9.912-6.569-13.806-2.527-3.564-5.092-5.849-6.797-7.143l-.727-.551-19.641 44.022a2.613 2.613 0 0 1-2.373 1.543H.198a.193.193 0 0 1-.176-.272l20.765-46.578a.178.178 0 0 1 .155-.103h4.629l2.998-6.724c.036-.073.103-.14.154-.147h.015c.036 0 .058 0 .08.015l.934.434c.639.293 6.392 3.093 11.991 10.823 3.3 4.556 5.923 9.949 7.79 16.018 2.292 7.459 3.46 15.982 3.46 25.343v1.014a.166.166 0 0 1-.169.169h-7.12l-.007.008Z"/>
        <path fill="url(#i)" d="M188.731 4.622h-2.572l-27.393 61.37h2.572l27.393-61.37Z"/>
        <path fill="url(#j)"
              d="M231.797 52.288c0-9.259-1.154-17.716-3.439-25.123-1.874-6.084-4.504-11.5-7.826-16.084C214.919 3.329 209.033.382 208.203 0l-.956 2.146c1.029.485 6.217 3.189 11.382 10.316 3.167 4.372 5.688 9.552 7.488 15.394 2.05 6.672 3.167 14.247 3.314 22.521l.014.735h-10.823l-.073-.632c-.684-5.628-1.793-10.963-3.292-15.842-2.249-7.304-5.408-13.792-9.391-19.296a52.72 52.72 0 0 0-3.123-3.909l-.308-.345 3.74-8.377h-2.572l-2.91 6.525-.742-.712c-4.629-4.446-8.457-6.276-8.876-6.467l-.309-.14-.955 2.146.286.133c.728.33 4.578 2.24 9.229 7.002l.346.353-18.708 41.927h35.564l.059.654c.257 2.858.404 5.812.448 8.788v.735h-40.619l-1.051 2.351h44.029v-1.175c0-3.594-.147-7.143-.441-10.567l-.066-.786h12.925v-1.176l-.015-.014Zm-47.232-1.176 16.819-37.687.742.903a53.836 53.836 0 0 1 1.837 2.389c3.828 5.29 6.878 11.55 9.045 18.604 1.426 4.622 2.484 9.663 3.152 14.975l.103.809h-31.691l-.007.007Z"/>
        <path fill="url(#k)" d="M202.31 70.114h-45.381l-1.051 2.351h45.388l1.044-2.351Z"/>
        <path fill="url(#l)" d="M169.803 78.41h43.646l1.044-2.352h-43.64l-1.05 2.351Z"/>
        <path fill="url(#m)" d="M178.752 84.361h17.18l1.043-2.351h-17.172l-1.051 2.351Z"/>
    </g>
    <defs>
        <linearGradient id="b" x1="95.236" x2="277.515" y1="184.307" y2="184.307" gradientUnits="userSpaceOnUse">
            <stop offset=".3" stop-color="#B38C3F"/>
            <stop offset=".48" stop-color="#C3A462"/>
            <stop offset=".73" stop-color="#DDCA96"/>
            <stop offset=".75" stop-color="#D1B97E"/>
            <stop offset=".78" stop-color="#C6A867"/>
            <stop offset=".81" stop-color="#BD9B55"/>
            <stop offset=".84" stop-color="#B79248"/>
            <stop offset=".89" stop-color="#B48D41"/>
            <stop offset="1" stop-color="#B38C3F"/>
        </linearGradient>
        <linearGradient id="c" x1="0" x2="277.515" y1="184.418" y2="184.418" gradientUnits="userSpaceOnUse">
            <stop offset=".3" stop-color="#B38C3F"/>
            <stop offset=".48" stop-color="#C3A462"/>
            <stop offset=".73" stop-color="#DDCA96"/>
            <stop offset=".75" stop-color="#D1B97E"/>
            <stop offset=".78" stop-color="#C6A867"/>
            <stop offset=".81" stop-color="#BD9B55"/>
            <stop offset=".84" stop-color="#B79248"/>
            <stop offset=".89" stop-color="#B48D41"/>
            <stop offset="1" stop-color="#B38C3F"/>
        </linearGradient>
        <linearGradient id="d" x1="95.235" x2="277.516" y1="184.403" y2="184.403" gradientUnits="userSpaceOnUse">
            <stop offset=".3" stop-color="#B38C3F"/>
            <stop offset=".48" stop-color="#C3A462"/>
            <stop offset=".73" stop-color="#DDCA96"/>
            <stop offset=".75" stop-color="#D1B97E"/>
            <stop offset=".78" stop-color="#C6A867"/>
            <stop offset=".81" stop-color="#BD9B55"/>
            <stop offset=".84" stop-color="#B79248"/>
            <stop offset=".89" stop-color="#B48D41"/>
            <stop offset="1" stop-color="#B38C3F"/>
        </linearGradient>
        <linearGradient id="e" x1="95.236" x2="277.515" y1="184.418" y2="184.418" gradientUnits="userSpaceOnUse">
            <stop offset=".3" stop-color="#B38C3F"/>
            <stop offset=".48" stop-color="#C3A462"/>
            <stop offset=".73" stop-color="#DDCA96"/>
            <stop offset=".75" stop-color="#D1B97E"/>
            <stop offset=".78" stop-color="#C6A867"/>
            <stop offset=".81" stop-color="#BD9B55"/>
            <stop offset=".84" stop-color="#B79248"/>
            <stop offset=".89" stop-color="#B48D41"/>
            <stop offset="1" stop-color="#B38C3F"/>
        </linearGradient>
        <linearGradient id="f" x1="95.236" x2="277.515" y1="0" y2="0" gradientUnits="userSpaceOnUse">
            <stop offset=".3" stop-color="#B38C3F"/>
            <stop offset=".48" stop-color="#C3A462"/>
            <stop offset=".73" stop-color="#DDCA96"/>
            <stop offset=".75" stop-color="#D1B97E"/>
            <stop offset=".78" stop-color="#C6A867"/>
            <stop offset=".81" stop-color="#BD9B55"/>
            <stop offset=".84" stop-color="#B79248"/>
            <stop offset=".89" stop-color="#B48D41"/>
            <stop offset="1" stop-color="#B38C3F"/>
        </linearGradient>
        <linearGradient id="g" x1="95.236" x2="277.515" y1="184.395" y2="184.395" gradientUnits="userSpaceOnUse">
            <stop offset=".3" stop-color="#B38C3F"/>
            <stop offset=".48" stop-color="#C3A462"/>
            <stop offset=".73" stop-color="#DDCA96"/>
            <stop offset=".75" stop-color="#D1B97E"/>
            <stop offset=".78" stop-color="#C6A867"/>
            <stop offset=".81" stop-color="#BD9B55"/>
            <stop offset=".84" stop-color="#B79248"/>
            <stop offset=".89" stop-color="#B48D41"/>
            <stop offset="1" stop-color="#B38C3F"/>
        </linearGradient>
        <linearGradient id="h" x1="95.236" x2="277.515" y1="184.403" y2="184.403" gradientUnits="userSpaceOnUse">
            <stop offset=".3" stop-color="#B38C3F"/>
            <stop offset=".48" stop-color="#C3A462"/>
            <stop offset=".73" stop-color="#DDCA96"/>
            <stop offset=".75" stop-color="#D1B97E"/>
            <stop offset=".78" stop-color="#C6A867"/>
            <stop offset=".81" stop-color="#BD9B55"/>
            <stop offset=".84" stop-color="#B79248"/>
            <stop offset=".89" stop-color="#B48D41"/>
            <stop offset="1" stop-color="#B38C3F"/>
        </linearGradient>
        <linearGradient id="i" x1="149.544" x2="237.19" y1="24.402" y2="63.875" gradientUnits="userSpaceOnUse">
            <stop stop-color="#6F5B3C"/>
            <stop offset=".09" stop-color="#8C703D"/>
            <stop offset=".17" stop-color="#A17F3E"/>
            <stop offset=".26" stop-color="#AE883E"/>
            <stop offset=".33" stop-color="#B38C3F"/>
            <stop offset=".46" stop-color="#C3A462"/>
            <stop offset=".62" stop-color="#B38C3F"/>
            <stop offset=".8" stop-color="#B38C3F"/>
            <stop offset=".87" stop-color="#B08A3E"/>
            <stop offset=".91" stop-color="#A7833E"/>
            <stop offset=".95" stop-color="#99793D"/>
            <stop offset=".98" stop-color="#846A3C"/>
            <stop offset="1" stop-color="#6F5B3C"/>
        </linearGradient>
        <linearGradient id="j" x1="153.446" x2="241.092" y1="15.732" y2="55.197" gradientUnits="userSpaceOnUse">
            <stop stop-color="#6F5B3C"/>
            <stop offset=".09" stop-color="#8C703D"/>
            <stop offset=".17" stop-color="#A17F3E"/>
            <stop offset=".26" stop-color="#AE883E"/>
            <stop offset=".33" stop-color="#B38C3F"/>
            <stop offset=".46" stop-color="#C3A462"/>
            <stop offset=".62" stop-color="#B38C3F"/>
            <stop offset=".8" stop-color="#B38C3F"/>
            <stop offset=".87" stop-color="#B08A3E"/>
            <stop offset=".91" stop-color="#A7833E"/>
            <stop offset=".95" stop-color="#99793D"/>
            <stop offset=".98" stop-color="#846A3C"/>
            <stop offset="1" stop-color="#6F5B3C"/>
        </linearGradient>
        <linearGradient id="k" x1="136.972" x2="224.618" y1="52.317" y2="91.79" gradientUnits="userSpaceOnUse">
            <stop stop-color="#6F5B3C"/>
            <stop offset=".09" stop-color="#8C703D"/>
            <stop offset=".17" stop-color="#A17F3E"/>
            <stop offset=".26" stop-color="#AE883E"/>
            <stop offset=".33" stop-color="#B38C3F"/>
            <stop offset=".46" stop-color="#C3A462"/>
            <stop offset=".62" stop-color="#B38C3F"/>
            <stop offset=".8" stop-color="#B38C3F"/>
            <stop offset=".87" stop-color="#B08A3E"/>
            <stop offset=".91" stop-color="#A7833E"/>
            <stop offset=".95" stop-color="#99793D"/>
            <stop offset=".98" stop-color="#846A3C"/>
            <stop offset="1" stop-color="#6F5B3C"/>
        </linearGradient>
        <linearGradient id="l" x1="136.943" x2="224.588" y1="52.376" y2="91.841" gradientUnits="userSpaceOnUse">
            <stop stop-color="#6F5B3C"/>
            <stop offset=".09" stop-color="#8C703D"/>
            <stop offset=".17" stop-color="#A17F3E"/>
            <stop offset=".26" stop-color="#AE883E"/>
            <stop offset=".33" stop-color="#B38C3F"/>
            <stop offset=".46" stop-color="#C3A462"/>
            <stop offset=".62" stop-color="#B38C3F"/>
            <stop offset=".8" stop-color="#B38C3F"/>
            <stop offset=".87" stop-color="#B08A3E"/>
            <stop offset=".91" stop-color="#A7833E"/>
            <stop offset=".95" stop-color="#99793D"/>
            <stop offset=".98" stop-color="#846A3C"/>
            <stop offset="1" stop-color="#6F5B3C"/>
        </linearGradient>
        <linearGradient id="m" x1="133.996" x2="221.642" y1="58.923" y2="98.396" gradientUnits="userSpaceOnUse">
            <stop stop-color="#6F5B3C"/>
            <stop offset=".09" stop-color="#8C703D"/>
            <stop offset=".17" stop-color="#A17F3E"/>
            <stop offset=".26" stop-color="#AE883E"/>
            <stop offset=".33" stop-color="#B38C3F"/>
            <stop offset=".46" stop-color="#C3A462"/>
            <stop offset=".62" stop-color="#B38C3F"/>
            <stop offset=".8" stop-color="#B38C3F"/>
            <stop offset=".87" stop-color="#B08A3E"/>
            <stop offset=".91" stop-color="#A7833E"/>
            <stop offset=".95" stop-color="#99793D"/>
            <stop offset=".98" stop-color="#846A3C"/>
            <stop offset="1" stop-color="#6F5B3C"/>
        </linearGradient>
        <clipPath id="a">
            <path fill="#fff" d="M0 0h375v193.059H0z"/>
        </clipPath>
    </defs>
</svg>
